<svg xmlns="http://www.w3.org/2000/svg" width="400" height="86.934" viewBox="0 0 400 NaN" fill-rule="evenodd"><path d="M183.205 16.626l-10.878.043.1 8.081h25.833l.042-1.333c.065-2.062.28-2.491 1.047-2.081.268.144.322.398.363 1.695.033 1.059.113 1.547.262 1.596.167.056.204-.339.167-1.82l-.048-1.89-.666-.145c-1.16-.252-1.193-.268-.912-.445.275-.174 1.825-.215 2.23-.059.222.085.264.447.264 2.283 0 2.942.293 2.556.356-.468l.048-2.333-1.16-.042c-1.988-.073-1.9-.009-1.9-1.55 0-.921-.064-1.356-.208-1.402-.428-.137-4.342-.171-14.92-.13m30.505-.007c-2.468.07-2.236-.406-2.174 4.464l.047 3.667h25.834l.084-1.632c.08-1.56.217-1.938.7-1.949.294-.006.465.753.465 2.07 0 .785.067 1.428.15 1.428.266 0 .35-.501.35-2.077 0-1.715-.077-1.864-1-1.951-1.053-.1-.527-.389.71-.389h1.208l.047 2.164c.026 1.19.116 2.232.2 2.315.264.264.352-.558.302-2.812l-.048-2.167-1.325-.049c-1.708-.064-1.758-.113-1.758-1.721v-1.313h-10.396c-5.718 0-10.61-.024-10.875-.053s-1.397-.027-2.52.005m58.623.048l-8.583.083-.045 3.905c-.034 3.013.004 3.935.167 4.039.116.074 5.967.133 13 .133l12.79-.002.086-.371c.047-.204.104-1.008.127-1.787.04-1.389.05-1.417.458-1.417.415 0 .417.01.464 1.708.04 1.385.095 1.709.297 1.709.2 0 .242-.31.203-1.959l-.047-1.958-.708-.051c-1.364-.099-.906-.555.5-.498l1.208.049.083 2.209c.116 3.057.405 2.879.463-.285l.046-2.494-1.463-.048-1.462-.049-.09-1.366c-.05-.752-.126-1.404-.17-1.448-.14-.14-8.4-.189-17.325-.102m28.334 0l-2.084.083v8h25.834l.047-1.622c.043-1.444.086-1.643.393-1.807.526-.282.625-.037.678 1.667.034 1.093.113 1.59.262 1.639.168.056.204-.355.167-1.903l-.047-1.974-.63-.083c-1.045-.138-.707-.417.506-.417h1.125l.083 2.209c.115 3.057.404 2.879.463-.285l.046-2.494-1.463-.048-1.463-.049-.048-1.383c-.03-.89-.12-1.408-.25-1.456-.295-.107-21.17-.175-23.618-.077m65.166-.014l-2.083.097v8h12.833l.084-1.617c.144-2.793 1.05-2.842 1.13-.062.07 2.375.436 2.102.5-.372.052-2.048.12-1.92-1.095-2.069-.886-.108-.285-.38.84-.38h1.208l.083 2.209c.116 3.077.417 2.896.417-.251V19.75l-3-.167-.096-2.916h-3.9c-2.14 0-4.105-.025-4.368-.055s-1.417-.012-2.563.041m-345.59.226c-.045.116-.062 1.935-.037 4.041l.045 3.83h30.333l.084-1.617c.084-1.642.26-2.094.738-1.91.21.081.262.398.264 1.647.003 1.561.14 2.101.48 1.892.23-.143.252-3.066.027-3.657-.122-.32-.297-.429-.754-.469-.93-.082-.77-.38.237-.438 1.733-.098 1.675-.177 1.675 2.305 0 1.369.063 2.164.17 2.164s.155-.858.125-2.459l-.046-2.458-2.833-.167-.096-2.916H35.488l-15.246.212m34.797 3.829l.044 4.042H85.25l.083-1.617c.144-2.793 1.05-2.842 1.132-.062.07 2.375.436 2.102.5-.372.052-2.053.12-1.929-1.13-2.069-.905-.101-.264-.38.875-.38h1.21L88 22.459c.116 3.077.417 2.896.417-.251V19.75l-3-.167-.097-2.916H54.994l.045 4.041m34.87-3.831c-.045.117-.062 1.937-.037 4.043l.045 3.83 6.083.046c7.53.058 6.833.217 6.833-1.56 0-1.55.168-2.069.67-2.069.402 0 .484.331.54 2.166.064 2.188.375 1.671.375-.625V20.75l-.75-.083c-1.007-.112-.883-.404.197-.469 1.667-.098 1.62-.162 1.673 2.249.034 1.529.105 2.128.26 2.18.168.055.203-.455.167-2.403l-.046-2.474-1.167-.042c-1.98-.072-1.896-.004-1.952-1.584l-.048-1.374-6.38-.044c-5.07-.034-6.397.001-6.462.171m30.296 3.831l.045 4.042h8.5l.084-1.632c.08-1.56.217-1.938.702-1.949.294-.006.464.753.464 2.07 0 .785.066 1.428.147 1.428.242 0 .348-.666.35-2.188.002-1.596-.083-1.754-1-1.84-1.053-.1-.526-.389.71-.389h1.21l.047 2.164c.025 1.19.115 2.232.2 2.315.263.264.352-.558.302-2.812l-.048-2.167-1.326-.049c-1.708-.064-1.758-.113-1.758-1.721v-1.313h-8.672l.044 4.041m13.067-3.669c-.222.832-.116 7.411.124 7.61.16.134 1.434.177 4.29.146l4.063-.045.048-1.622c.08-2.736 1.202-2.836 1.202-.108 0 1.39.02 1.48.35 1.48.334 0 .346-.068.29-1.737-.064-1.956-.064-1.956-.983-2.086-1.098-.154-.84-.423.455-.476l1.195-.048.055 2.16c.05 1.919.152 2.564.373 2.34.038-.038.09-1.157.118-2.486l.05-2.417-2.985-.167-.167-2.833-8.376-.089-.102.378m21.84-.261c-.06.061-.11 1.859-.11 3.997v3.885l.375.092c.206.051 2.1.071 4.208.045l3.834-.047.096-1.639c.106-1.818.32-2.203.987-1.781.184.116.265.554.308 1.664.088 2.258.526 2.158.523-.119-.003-1.902-.078-2.067-1-2.195-1.12-.158-.783-.43.534-.43h1.208l.047 2.208c.038 1.83.09 2.209.296 2.209.212 0 .243-.366.203-2.459l-.046-2.458-1.325-.049c-1.708-.064-1.758-.113-1.758-1.721v-1.313h-4.14c-2.276 0-4.19.05-4.25.111m178.16.264c-.15.561-.12 7.342.033 7.585.104.164 1.512.2 6.456.166l6.322-.043.085-1.632c.08-1.56.217-1.938.7-1.949.294-.006.464.753.464 2.07 0 .785.067 1.428.15 1.428.267 0 .35-.501.35-2.077 0-1.715-.076-1.864-1-1.951-1.054-.1-.527-.389.71-.389h1.208l.047 2.164c.026 1.19.115 2.232.2 2.315.264.264.352-.558.302-2.812l-.048-2.167-1.325-.049c-1.71-.064-1.758-.113-1.758-1.721v-1.313h-12.795l-.1.375M33.255 27.873c-.048.207-.106.865-.13 1.46l-.043 1.084h-9.666l-.084-1.279c-.075-1.162-.21-1.649-.405-1.454-.04.039-.09.783-.108 1.652l-.034 1.581 5.06.044c4.885.042 5.803.138 5.157.538-.27.167-9.76.225-10.627.064l-.542-.1v-1.551c0-1.578-.084-2.079-.35-2.079-.082 0-.15.938-.15 2.084V32l3.625.017 5.718-.014c2.53-.037 2.46-.092 2.526 2.006l.048 1.574h12.833v-8l-12.742-.087-.086.377m18.595.013c-.1.258-.183.952-.183 1.542V30.5h-2c-1.095 0-2.015.056-2.046.125-.124.285.073 4.875.2 4.875.082 0 .17-.994.196-2.208l.046-2.209 4.167-.166.048-1.344c.026-.739-.022-1.526-.108-1.75l-.156-.406-.184.469m3.19 3.656l.044 4.041h8.5l.047-3.666c.026-2.017.006-3.836-.044-4.042l-.092-.375h-8.5l.045 4.042m33.08-3.94c-.066.066-.12.935-.12 1.93 0 1.766-.01 1.813-.408 1.965-.235.089-4.795.156-10.78.158-8.218.003-10.4.048-10.51.216-.226.348-.09 3.674.154 3.754.156.052.21-.289.21-1.35 0-.781.073-1.612.162-1.847l.162-.427 10.59.009 10.754-.094c.095-.059.16-.897.154-1.968-.01-1.829-.13-2.584-.368-2.346m1.79.108c-.045.118-.062 1.937-.037 4.044l.045 3.829h17.166l.048-1.622c.042-1.42.09-1.644.378-1.799.557-.298.658-.04.658 1.681 0 1.362.044 1.657.25 1.657s.25-.321.25-1.885v-1.884l-.68-.157c-1.034-.24-.794-.491.47-.491h1.125l.084 2.21c.116 3.076.416 2.895.416-.251v-2.459l-2.833-.166-.083-1.417-.084-1.417-8.546-.043c-6.824-.034-8.563 0-8.628.17m30.333.002c-.045.117-.062 1.935-.037 4.042l.045 3.829 8.583.089V27.5h-4.255c-3.29 0-4.274.048-4.336.212m11.258 3.885c0 3.204.045 4.082.208 4.028.225-.075.4-6.516.208-7.583-.27-1.496-.416-.25-.416 3.555m1.84-3.778c-.4.746-.22 7.663.2 7.766.206.051 2.137.071 4.29.045l3.917-.047v-8l-4.118-.044c-3.937-.043-4.125-.031-4.29.28m11.096.205c-.133.666-.136 7.032-.003 7.378.29.754.4-.297.4-3.819 0-3.595-.14-4.845-.396-3.559m10.638-.312c-.045.117-.06 1.935-.037 4.042l.045 3.829 8.417.089V27.5h-4.172c-3.222 0-4.2.048-4.253.212m11.183-.042c-.172.446-.022 7.83.16 7.83.22 0 .313-7.416.097-7.801-.137-.245-.17-.248-.256-.029m1.846.351c-.152.763-.122 7.192.035 7.44.104.164 1.076.201 4.29.167l4.155-.045.047-3.666c.026-2.017.006-3.836-.044-4.042l-.092-.375h-8.286l-.104.521m25.984-.149c-.047.208-.105.866-.13 1.461l-.042 1.084-8 .083c-4.4.046-7.982.14-7.96.208s.042 1.175.042 2.459c0 1.942.04 2.333.245 2.333s.254-.397.292-2.208l.046-2.209h7.667c6.704 0 7.667.032 7.667.25s-.93.255-7.23.285l-7.333.138c-.18.178-.232 3.744-.056 3.744.242 0 .363-.619.365-1.871.004-1.714-.454-1.618 7.503-1.579l6.75.033.166 3.5h8.667l.042-1.416c.057-1.926.132-2.201.59-2.136.348.049.374.153.452 1.789.126 2.624.5 2.52.5-.139v-2.014l-.54-.003c-.643-.003-1.046-.221-.887-.479.145-.233 1.842-.243 2.273-.012.292.156.322.366.322 2.25 0 1.309.063 2.077.17 2.077s.155-.858.125-2.458l-.046-2.459-2.833-.166-.167-2.834-8.576-.089-.086.378m12.996.167c-.054.299-.076 2.119-.05 4.044l.048 3.5h8.667v-8l-8.567-.089-.1.545m52.167 0c-.054.299-.077 2.119-.05 4.044l.05 3.5h8.667v-8l-8.568-.089-.098.545m34.824-.327c-.045.117-.06 1.935-.037 4.042l.045 3.829h8.667l.05-3.5c.027-1.925.004-3.743-.05-4.041l-.098-.542h-4.248c-3.283 0-4.266.048-4.33.212m26.193.052c-.056.145-.1.819-.1 1.498v1.235l-16.25.086-.046 2.459c-.04 2.113-.01 2.458.208 2.458s.254-.333.254-2.149c0-1.806.042-2.165.264-2.25.612-.235 15.57-.111 15.57.13 0 .399-.582.431-7.797.433l-7.047.003.047 1.917c.06 2.453.35 2.609.463.249l.084-1.75 6.75-.046c8.35-.057 7.477-.27 7.536 1.84l.047 1.706 3.917.047c5.1.062 4.666.221 4.666-1.708 0-1.66.15-1.982.842-1.801.387.101.487.527.49 2.087.003 1.21.17 1.635.402 1.028.13-.339.13-2.378 0-3.029-.09-.449-.176-.509-.84-.584-1.478-.167-1.093-.663.46-.59l1.066.05.047 2.209c.06 2.893.36 2.925.397.041l.042-2.458c.012-.25-.19-.304-1.403-.375l-1.416-.083-.042-.917c-.023-.504-.082-1.16-.132-1.458l-.09-.542H324.5c-3.622 0-4.154.033-4.242.264m12.983.276c-.054.299-.077 2.118-.05 4.043l.05 3.5h17.167l.083-1.631c.09-1.736.24-2.037.902-1.793.315.116.353.28.396 1.735.038 1.294.096 1.606.297 1.606.21 0 .242-.3.202-1.875l-.047-1.875-.667-.089c-1.487-.199-1.308-.654.26-.658 1.292-.004 1.325.056 1.325 2.48 0 2.84.294 2.416.363-.523.06-2.616.157-2.459-1.502-2.463-1.48-.003-1.504-.028-1.562-1.585l-.05-1.329-17.068-.086-.098.543m25.997-.166c-.05.207-.07 2.026-.045 4.043l.047 3.666h17.333v-8l-17.243-.086-.092.377m20.17-.19c-.167.435-.012 7.814.164 7.858.227.056.317-7.709.092-7.933-.108-.108-.196-.083-.256.075m-292.82.149c-.05.138-.11.775-.136 1.417l-.045 1.167-21.584.085v2.499c0 1.555.063 2.499.167 2.499s.167-.833.167-2.167c0-1.191.018-2.184.04-2.205s4.917-.077 10.875-.125l10.834-.086.048-1.378c.047-1.331-.158-2.281-.367-1.706M130 31.597c0 3.071.046 3.916.208 3.861.225-.074.4-6.188.208-7.25-.267-1.477-.416-.265-.416 3.389m110.167-2.093c0 1.766-.015 1.843-.385 1.984-.21.08-5.064.153-10.783.162l-10.538.156c-.2.198-.083 3.777.122 3.777.094 0 .204-.694.25-1.583.046-.871.145-1.678.22-1.794.107-.166 2.355-.206 10.697-.191l10.74-.091c.2-.118.255-3.528.077-3.994-.258-.67-.4-.111-.4 1.574m50.76-1.486c-.05.219-.11.849-.134 1.399l-.043 1-21.5.166-.046 2.459c-.04 2.113-.01 2.458.208 2.458s.255-.335.255-2.167c0-1.191.018-2.184.04-2.205s4.91-.077 10.858-.125l10.817-.086-.035-1.5c-.035-1.487-.243-2.178-.42-1.399m1.507-.088c-.055.145-.1.999-.1 1.898v1.635l-.54.101c-.298.056-2.867.098-5.71.093a3534.27 3534.27 0 0 0-10.297 0l-5.13.01.047 1.958c.06 2.471.35 2.602.464.208l.083-1.75 21.5-.057.047-2.179c.042-1.992-.082-2.648-.363-1.917m85.4 3.653c0 3.371.035 3.917.25 3.917.26 0 .395-6.929.15-7.57-.3-.785-.4.106-.4 3.653M53.458 27.93c-.068.069-.125.857-.125 1.752v1.625l-.54.173c-.298.095-1.218.161-2.045.146s-1.596.031-1.71.1c-.256.159-.293 3.774-.038 3.774.097 0 .17-.573.172-1.375.008-1.976.037-2.001 2.45-2.087 2.352-.085 2.063.232 2.007-2.197-.026-1.12-.103-1.98-.172-1.911m185.174 1.195l-.05 1.292-21.666.166-.046 2.459c-.04 2.113-.01 2.458.208 2.458s.254-.335.254-2.167c0-1.191.02-2.184.042-2.205s4.917-.077 10.875-.125l10.833-.086.05-1.164c.028-.639.008-1.333-.044-1.541-.194-.772-.4-.34-.457.913M143 31.75c0 3.639.01 3.75.333 3.75s.334-.111.334-3.75-.01-3.75-.334-3.75-.333.111-.333 3.75m21.833 0c0 3.222.036 3.75.25 3.75s.25-.528.25-3.75-.035-3.75-.25-3.75-.25.528-.25 3.75m-135.92 6.958c-.05.207-.07 2.025-.044 4.042l.047 3.667 12.916.087v-8.171H29.006l-.092.375m26.198-.265c-.06.062-.112 1.901-.112 4.086v3.973l21.583-.085.084-1.667c.08-1.602.098-1.669.48-1.723.572-.081.68.211.683 1.848.002 1.184.05 1.458.252 1.458.335 0 .376-3.638.042-3.742-.115-.036-.494-.113-.844-.171-1.07-.178-.65-.503.65-.503h1.152l.084 2.209c.116 3.076.416 2.895.416-.251v-2.458l-1.416-.084-1.417-.083-.083-1.417-.084-1.416-10.68-.043c-5.874-.024-10.73.007-10.792.069m34.797.099c-.045.119-.062 1.939-.037 4.045l.045 3.83 4.21.044 4.21.045-.09-8.089-4.13-.045c-3.25-.035-4.147.001-4.212.17m13.025.055c-.055.145-.1.817-.1 1.494v1.23l-3.083.096-.046 2.458c-.04 2.113-.01 2.458.208 2.458s.255-.334.255-2.163c0-2.482-.058-2.403 1.675-2.305 1.236.07 1.288.514.075.635l-.834.083v1.875c0 2.411.315 2.618.38.25l.048-1.708h1.3l.095 3.417h8.5l.083-1.667c.08-1.614.096-1.668.49-1.724.642-.091.842.364.842 1.913 0 1.409.212 1.962.397 1.037.382-1.909.063-3.475-.71-3.479-.332-.001-.717-.076-.854-.166-.392-.258.095-.492 1.028-.495 1.34-.005 1.305-.069 1.305 2.348 0 1.322.064 2.149.167 2.149s.178-.825.196-2.083l.042-2.458c.01-.354-.067-.38-1.405-.459l-1.417-.083L111.5 40c-.046-.687-.144-1.344-.218-1.458-.226-.349-8.213-.296-8.348.055m17.308-.052c-.045.117-.062 1.936-.037 4.042l.045 3.83 8.583.089v-8.173h-4.255c-3.29 0-4.274.048-4.336.212m11.258 3.886c0 3.203.045 4.082.208 4.027.225-.074.4-6.515.208-7.583-.27-1.495-.416-.25-.416 3.556m1.83-3.67c-.297.782-.208 7.519.1 7.638.145.055 6.97.101 15.167.101H163.5v-8.167h-30.008l-.163.428m32.93-.257c-.172.445-.022 7.83.16 7.83.22 0 .313-7.417.097-7.801-.137-.245-.17-.249-.256-.029m1.827.538c-.055.389-.08 2.208-.05 4.041l.05 3.334h8.5l.047-3.667c.026-2.017.006-3.835-.044-4.042l-.092-.375h-8.307l-.102.709m10.01-.375c-.175.682-.034 7.667.154 7.667.216 0 .313-7.14.104-7.686l-.15-.398-.107.417m15.986.039c-.05.207-.072 2.027-.046 4.044l.047 3.667h8.667v-8l-8.576-.089-.092.378m9.832.002c-.194.793-.007 7.678.21 7.75.163.055.208-.824.208-4.027 0-3.774-.127-4.91-.42-3.723m3.17.164c-.054.3-.076 2.12-.05 4.045l.048 3.5h8.667v-8l-8.567-.089-.1.544m9.837-.019c-.167.926-.025 7.564.162 7.564.22 0 .316-7.751.098-7.969-.1-.1-.195.05-.26.405m1.495-.151c-.195.797-.01 7.684.21 7.756.26.087.307-7.877.047-8.038-.09-.055-.204.072-.256.282m10.493-.159c-.045.118-.062 1.938-.037 4.044l.045 3.83h12.833l.042-1.334c.062-1.972.114-2.113.755-2.051l.536.051.048 1.625c.07 2.401.536 2.377.536-.028 0-2.027-.052-2.18-.736-2.18-.294 0-.68-.106-.857-.236-.427-.312.132-.477 1.354-.399l.822.052.083 2.111c.075 1.884.185 2.51.404 2.291.038-.039.094-1.142.125-2.452.063-2.738.226-2.502-1.78-2.575l-1.166-.042-.167-2.833-6.38-.044c-5.07-.035-6.397 0-6.462.17m30.344.496c-.057.391-.08 2.211-.053 4.044l.05 3.334h8.667v-8l-8.562-.089-.102.711m11.505-.535c-.172.445-.022 7.83.16 7.83.22 0 .313-7.417.097-7.801-.137-.245-.17-.249-.256-.029m23.317.041c-.045.117-.06 1.936-.037 4.042l.045 3.83h8.667l.05-3.5c.027-1.925.004-3.744-.05-4.042l-.098-.542h-4.248c-3.283 0-4.266.048-4.33.212m11.344-.028c-.167.435-.012 7.814.164 7.858.227.057.317-7.709.092-7.933-.108-.108-.196-.082-.256.075m14.83.191c-.05.207-.07 2.025-.045 4.042l.047 3.667h8.5l.045-3.714c.06-4.886.576-4.37-4.38-4.37h-4.074l-.092.375m10.02-.204c-.178.418-.038 7.825.15 7.871.215.054.313-6.848.108-7.589-.105-.379-.18-.462-.257-.282m2.982.371c-.053.298-.076 2.117-.05 4.042l.05 3.5 4 .047c2.2.025 4.17.005 4.375-.045.412-.101.594-6.654.212-7.658l-.162-.428h-8.327l-.098.542m12.998-.333c-.04.114-.095.771-.12 1.458l-.045 1.25-3 .167v2.5c0 2.111.04 2.5.25 2.5.206 0 .265-.398.334-2.25l.083-2.25h1.167c1.368 0 1.762.456.475.55-.827.06-.827.061-.756 2.241.066 2.02.363 2.155.367.167.002-1.637.1-1.929.683-1.848.382.054.4.121.48 1.723l.083 1.667h17.333l.047-3.667c.026-2.017.006-3.835-.044-4.042l-.092-.375h-8.586c-6.717 0-8.6.046-8.66.209m21.7.309c-.058.288-.105.962-.105 1.497v.972l-2.916.097v2.458c0 3.146.3 3.327.416.251l.084-2.209h1.166c1.38 0 1.76.457.46.551l-.71.051v1.907c0 1.563.044 1.907.244 1.907s.254-.331.292-1.625l.048-1.625.904-.104.096 3.438 8.756.089-.1-8.089-8.54-.089-.105.523m11.487-.347c-.172.445-.022 7.83.158 7.83.22 0 .314-7.417.098-7.801-.137-.245-.172-.249-.256-.029M130 42.417c0 3.37.035 3.916.25 3.916.26 0 .387-6.555.145-7.458-.28-1.044-.395-.01-.395 3.542m75.5 0c0 2.5.06 3.916.167 3.916s.166-1.416.166-3.916-.06-3.917-.166-3.917-.167 1.417-.167 3.917m63.667 0c0 3.37.035 3.916.25 3.916.258 0 .394-6.929.15-7.569-.302-.786-.4.106-.4 3.653m34.705.041c.058 5.133.36 5.398.425.375.048-3.625-.002-4.333-.303-4.333-.108 0-.15 1.403-.122 3.958m73.96-.041c0 3.37.035 3.916.25 3.916.26 0 .395-6.929.15-7.569-.3-.786-.4.106-.4 3.653M47.667 39.913c0 1.485.15 1.402-2.667 1.463l-1.917.041v2.458c0 3.13.314 3.372.38.292.026-1.192.063-2.178.084-2.191s1.01-.069 2.203-.125l2.167-.101.048-1.542c.03-.984-.015-1.541-.125-1.541-.104 0-.173.496-.173 1.246m131.613-1.138c-.26.26-.128 7.558.137 7.558.214 0 .25-.512.247-3.625-.002-3.348-.088-4.228-.384-3.933m152.053 3.715c0 2.451.06 3.843.167 3.843s.167-1.357.167-3.74c0-2.313-.064-3.779-.167-3.843-.11-.068-.167 1.22-.167 3.74m-282.5-2.044c0 2.08.056 2.03-2.343 2.09l-1.907.047v1.875c0 2.346.3 2.527.417.252l.083-1.627 1.914-.047c2.345-.058 2.26.025 2.195-2.167-.07-2.326-.36-2.666-.36-.423m116 2.221c0 3.148.036 3.666.25 3.666s.25-.518.25-3.666-.035-3.667-.25-3.667-.25.519-.25 3.667M24.66 49.603c-.096.254-.147 1.936-.12 4.041l.045 3.606h13l.045-3.812c.032-2.673-.012-3.881-.145-4.042-.155-.187-1.337-.229-6.424-.229h-6.234l-.166.436m30.452-.325c-.06.061-.11 1.9-.11 4.086v3.975l8.583-.089.047-3.667c.026-2.016.006-3.835-.044-4.041l-.092-.375h-4.136c-2.275 0-4.186.05-4.247.111m34.798.098c-.045.118-.062 1.938-.037 4.044l.045 3.83 8.422.089-.09-8.089-4.13-.045c-3.25-.035-4.147.002-4.212.171m14.173.159c-.053.21-.074 1.244-.047 2.298l.048 1.917 1.44.048c1.688.056 1.637-.012 1.64 2.16l.003 1.375h8.666l.003-1.375c.003-1.769.1-2.125.58-2.125s.578.356.58 2.139c.001 1.036.055 1.371.2 1.32s.21-.598.21-1.973v-1.902l-.667-.084c-.444-.055-.667-.166-.667-.333 0-.311 1.308-.43 1.97-.179l.448.171v2.087c0 1.281.064 2.088.167 2.088s.166-.916.166-2.414c0-2.771.156-2.549-1.833-2.627l-1.083-.043-.167-2.833-8.57-.089-.097 2.922h-.5c-.5 0-.5-.001-.545-1.083-.092-2.166-.53-1.934-.535.282l-.003 1.366.707.051c1.347.097 1.056.634-.344.634s-1.363.062-1.363-2.253c0-1.627-.208-2.394-.418-1.545m16.2-.26c-.063.063-.114 1.901-.114 4.086v3.972h8.672l-.09-8.083-4.178-.044c-2.298-.025-4.23.006-4.29.069m11.338-.005c-.23.229-.14 8.098.09 8.022.157-.052.22-.985.253-3.741.042-3.414-.05-4.572-.342-4.281m1.708.33c-.098.258-.148 1.923-.122 4.044l.045 3.606h8.5v-8l-8.256-.089-.167.439m21.787-.325c-.063.063-.114.697-.114 1.41 0 1.632.614 1.478-5.93 1.486-3.802.005-5.703.066-5.85.189-.4.34-.303 4.807.115 4.807.316 0 .334-.111.334-2.149 0-2.628-.668-2.351 5.666-2.351 5.34 0 5.815.037 5.484.436-.155.187-1.144.23-5.233.23h-5.042l-.104.521c-.132.66-.132 2.611 0 3.104.21.786.366.315.42-1.278.032-.909.11-1.706.176-1.771.135-.135 9.657-.106 9.793.029.05.049.126.814.172 1.7l.083 1.612 8.423.089-.09-8.089-4.095-.045c-2.252-.024-4.145.007-4.208.07m11.144.062c-.172.445-.022 7.83.16 7.83.22 0 .313-7.417.097-7.801-.137-.245-.17-.249-.256-.029m1.9.266c-.096.254-.147 1.936-.12 4.041l.045 3.606h8.5l.045-3.812c.032-2.673-.012-3.881-.145-4.042-.152-.183-.997-.229-4.174-.229h-3.984l-.166.436m25.922-.061c-.05.206-.07 2.025-.045 4.041l.047 3.667h8.667v-8l-8.577-.083-.092.375m9.833 0c-.194.792-.007 7.677.21 7.75.163.054.208-.824.208-4.028 0-3.774-.127-4.91-.42-3.722m3.257-.05c-.114.213-.16 1.654-.133 4.045l.045 3.713h8.667v-8l-4.2-.045c-4.045-.042-4.207-.032-4.378.287m11.245.043c-.195.797-.01 7.684.21 7.757.26.087.307-7.878.047-8.039-.09-.055-.204.072-.256.282m15.03-.26c-.062.063-.114 1.903-.114 4.089v3.975l4.21-.044 4.208-.045v-8l-4.094-.045c-2.252-.024-4.146.007-4.21.07m25.806.597c-.057.391-.08 2.211-.053 4.045l.05 3.333 8.756.089-.09-8.089-8.562-.089-.102.711m11.53-.599c-.226.227-.136 8.095.093 8.019.157-.052.22-1.008.253-3.857.04-3.485-.04-4.467-.346-4.162m23.293.106c-.045.116-.06 1.935-.037 4.041l.045 3.83h8.667l.05-3.5c.027-1.925.004-3.744-.05-4.042l-.098-.541h-4.248c-3.283 0-4.266.048-4.33.212m11.374-.106c-.227.227-.136 8.095.093 8.019.156-.052.22-1.008.253-3.857.04-3.485-.04-4.467-.346-4.162m14.8.435c-.053.298-.076 2.117-.05 4.042l.05 3.5h8.5l.045-3.713c.06-4.886.575-4.37-4.377-4.37h-4.07l-.098.541m13.002.167c-.056.39-.08 2.208-.052 4.042l.05 3.333h8.667l.045-3.606c.026-2.105-.025-3.787-.12-4.041l-.166-.436h-8.32l-.102.708m9.832-.167c-.224 1.236-.015 7.542.25 7.542.213 0 .258-.522.3-3.5.05-3.525-.02-4.583-.3-4.583-.083 0-.195.243-.25.541m7.58-.114c-.1.235-.163.91-.163 1.5v1.073h-1.13l-.06-1.32c-.055-1.195-.182-1.696-.38-1.497-.04.04-.09.784-.108 1.653l-.035 1.58.767.091c1.347.158 1.268.661-.104.657-1.633-.004-1.615.015-1.615-1.753 0-1.577-.084-2.078-.35-2.078-.082 0-.15.936-.15 2.08 0 2.397-.148 2.219 1.917 2.294l1.167.043.166 3.333h8.667l.045-3.812c.03-2.673-.012-3.881-.146-4.042-.152-.183-1.01-.229-4.257-.229h-4.067l-.162.427m14.266-.256c-.05.135-.11.808-.134 1.495l-.045 1.25-2 .048c-2.558.06-2.427-.087-2.427 2.723 0 2.202.016 2.313.334 2.313s.333-.111.333-2.149c0-2.542-.197-2.351 2.43-2.351h1.903l-.002-1.542c-.003-1.491-.197-2.354-.402-1.787m3 .534c-.056.391-.08 2.211-.052 4.045l.05 3.333 8.756.089-.1-8.089-8.562-.089-.102.711m11.53-.599c-.227.227-.136 8.095.093 8.019.156-.052.22-1.008.253-3.857.04-3.485-.04-4.467-.346-4.162m-336.353.402c-.05.225-.113.858-.136 1.408l-.043 1-1.75.042c-2.67.062-2.425-.194-2.367 2.493.08 3.615.4 3.813.533.327l.084-2.195 4.083-.094-.003-1.453c-.002-1.496-.22-2.321-.4-1.528m1.495-.161c-.047.13-.106 1.024-.13 1.986l-.044 1.75-2 .047c-1.117.027-2.085.127-2.208.229-.268.222-.317 3.641-.052 3.641.096 0 .168-.544.17-1.292.006-1.951.093-2.022 2.58-2.079l2-.046.047-2.07c.043-1.888-.123-2.85-.373-2.166m34.668.17c-.05.22-.11 1.112-.134 1.983l-.042 1.583-12.744.087-.094.373c-.164.657-.01 3.508.194 3.576.13.042.21-.463.255-1.604.037-.916.117-1.715.178-1.776s2.945-.121 6.41-.133l6.3-.023.047-2.07c.045-1.946-.145-2.967-.37-1.996M101 53.347c0 3.137.046 3.999.208 3.945.225-.075.4-6.352.208-7.417-.27-1.487-.416-.258-.416 3.472m29 0c0 3.137.046 3.999.208 3.945.225-.075.4-6.352.208-7.417-.27-1.487-.416-.258-.416 3.472m48.09-3.843c-.173.448-.022 7.75.16 7.705.22-.055.313-7.294.098-7.676-.138-.245-.172-.249-.257-.029m27.41 3.746c0 2.5.06 3.917.167 3.917s.166-1.417.166-3.917-.06-3.917-.166-3.917-.167 1.417-.167 3.917m11.414-3.542c-.162.664-.01 7.456.17 7.501.107.026.183-1.384.212-3.917.04-3.657-.08-4.805-.38-3.584m26.327-.163c-.16.419.006 7.705.176 7.705.105 0 .183-1.46.21-3.958.04-3.658-.057-4.606-.387-3.747m25.964 3.747c.058 5.132.36 5.398.425.375.048-3.625-.001-4.334-.303-4.334-.107 0-.15 1.404-.122 3.959m34.667 0c.058 5.132.36 5.398.425.375.048-3.625-.002-4.334-.303-4.334-.108 0-.15 1.404-.122 3.959m26.333 0c.057 5.04.357 5.421.427.541.05-3.48-.02-4.5-.31-4.5-.102 0-.146 1.474-.118 3.959m14.573-3.848c-.186.186-.132 7.723.055 7.723.107 0 .167-1.417.167-3.917l-.056-3.917c-.03 0-.105.05-.166.111m33.094 3.848c.058 5.132.36 5.398.425.375.048-3.625-.002-4.334-.303-4.334-.108 0-.15 1.404-.122 3.959M244.44 49.75c-.25.649-.12 7.417.143 7.417.215 0 .25-.513.248-3.625-.003-3.383-.118-4.504-.39-3.792m86.893 3.573c0 2.451.06 3.844.167 3.844s.167-1.358.167-3.74c0-2.314-.064-3.78-.167-3.844-.11-.067-.167 1.221-.167 3.74m35.107-3.573c-.06.152-.107.943-.107 1.758 0 1.835.014 1.825-2.55 1.825h-1.907l-.104.521c-.232 1.158-.065 3.479.25 3.479.08 0 .146-.553.146-1.229s.047-1.463.104-1.75l.104-.521h1.907c2.618 0 2.552.055 2.55-2.131-.003-1.753-.162-2.549-.39-1.952m-187.273 3.653c0 3.255.034 3.764.253 3.764.34 0 .297-7.345-.045-7.459-.163-.054-.208.758-.208 3.695M77.833 50.922c0 1.367.685 1.235-6.666 1.285l-6.25.043-.046 2.554c-.03 1.716.01 2.52.125 2.449.102-.063.17-.938.17-2.17 0-1.468.06-2.102.208-2.198.115-.074 3.058-.173 6.542-.218l6.333-.084.048-1.375c.04-1.148.006-1.375-.208-1.375-.205 0-.257.22-.257 1.089M99.667 53.5c0 3.148.035 3.667.25 3.667s.25-.519.25-3.667-.036-3.667-.25-3.667-.25.519-.25 3.667m65.166 0c0 3.148.036 3.667.25 3.667s.25-.519.25-3.667-.035-3.667-.25-3.667-.25.519-.25 3.667M20.277 60.112c-.06.06-.1 1.898-.1 4.082v3.973h30.5V66.68c0-1.76.075-2.013.595-2.013.384 0 .394.038.44 1.708.064 2.31.518 2.532.598.292.08-2.215-.012-2.5-.8-2.5-.694 0-1.026-.27-.648-.528.24-.164 1.995-.085 2.3.104.11.068.178.893.178 2.184 0 1.271.065 2.073.167 2.073s.167-.914.167-2.409v-2.409l-.542-.091c-.298-.05-.954-.11-1.458-.133l-.917-.041-.083-1.417-.084-1.417-15.097-.041c-8.304-.023-15.148.009-15.21.07m34.834 0c-.06.06-.11 1.898-.11 4.082v3.973h30.333V66.68c0-1.762.075-2.013.598-2.013.48 0 .553.252.6 2.083.066 2.072.376 1.556.376-.625V64.25l-.584-.048c-.916-.076-1.074-.162-.83-.454.236-.285 1.417-.334 2.07-.085l.428.162v2.185c0 1.673.05 2.168.208 2.115s.21-.715.21-2.556v-2.486l-3-.166-.167-2.834-15.014-.041c-8.258-.023-15.064.009-15.125.07m34.93-.003c-.16.065-.21 1.039-.21 4.072v3.986h8.506l-.09-8.084-4-.03c-2.2-.016-4.094.009-4.208.056m21.655.105c-.1.119-.203.777-.23 1.46l-.05 1.243h-1.167l-.045-1.167c-.09-2.283-.532-2.059-.536.27l-.002 1.438.837.08c1.476.142 1.327.629-.19.629-1.592 0-1.646-.065-1.65-1.965-.002-1.646-.185-2.434-.39-1.674-.148.553-.128 3.682.025 3.923.08.127.685.22 1.622.25l1.495.049.166 3.333 17.256.087-.09-8.087-8.436-.043c-6.785-.036-8.472-.002-8.617.174m19.922-.11c-.23.228-.14 8.098.09 8.021.157-.052.22-.984.253-3.741.042-3.414-.05-4.572-.342-4.28m1.708.329c-.098.258-.148 1.924-.122 4.045l.045 3.605 8.59.089-.09-8.089-8.256-.089-.167.439m21.878-.295c-.163.104-.2 1.028-.166 4.04l.044 3.905 8.423.089-.09-8.089-4-.04c-2.2-.023-4.095.02-4.212.095m17.21.072c-.04.114-.094.769-.12 1.457l-.045 1.25h-1l-.05-1.22c-.072-1.786-.436-1.524-.5.358l-.048 1.445.63.003c.347.001.735.068.86.148.468.296-.017.516-1.138.516-1.376 0-1.34.058-1.34-2.264 0-1.024-.067-1.736-.164-1.736-.274 0-.352.667-.3 2.583l.048 1.833 1.41.049c1.696.059 1.667.024 1.67 1.993l.002 1.542h26.006l-.09-8.084-12.88-.039c-10.113-.031-12.897.004-12.955.166m39.258.114c-.095.176-.172.851-.172 1.498V63h-1.333l-.003-1.042c-.002-1.188-.134-1.829-.35-1.696-.08.05-.147.799-.147 1.665V63.5l.708.003c.793.002 1.226.199 1.053.478-.12.195-1.878.258-2.33.085-.216-.083-.264-.401-.264-1.75 0-1.355-.044-1.649-.25-1.649s-.25.322-.25 1.899c0 2.21-.096 2.101 1.84 2.101h1.314l.095 3.416 25.923.086-.09-8.086-12.787-.04c-12.476-.04-12.8-.033-12.958.281m34.664.004c-.112.21-.16 1.671-.13 4.042l.045 3.713h8.667l.083-1.666c.08-1.603.1-1.669.48-1.723.577-.082.68.21.683 1.931.002 1.272.047 1.542.258 1.542.217 0 .248-.291.208-1.959l-.047-1.958-.666-.053c-1.31-.103-1.143-.69.197-.694 1.5-.006 1.536.035 1.59 2.449.064 2.898.366 2.735.427-.23.055-2.698.108-2.613-1.68-2.722l-1.368-.083-.05-1.243c-.072-1.781.215-1.674-4.465-1.674-3.866 0-4.066.015-4.233.328m17.547-.195c-.122.077-.22.652-.25 1.455l-.05 1.329h-1.166l-.084-1.294c-.116-1.813-.406-1.63-.464.293l-.048 1.584h.6c.768 0 1.393.304 1.06.515-.263.167-1.986.203-2.384.051-.216-.083-.264-.406-.266-1.792-.002-.93-.07-1.799-.155-1.932-.258-.406-.36.403-.308 2.408l.05 1.833 1.54.048c1.785.056 1.682-.068 1.75 2.119l.042 1.333h26l.095-3.437.453.052c.45.052.452.057.535 1.678.117 2.276.417 2.095.417-.251V64.25l-.667-.083c-.444-.056-.666-.167-.666-.334 0-.286.98-.421 1.863-.255l.544.102.046 2.188c.034 1.593.105 2.207.26 2.259.168.055.203-.471.167-2.487l-.046-2.557-2.917-.096v-.973c0-.535-.046-1.205-.103-1.489l-.103-.517-12.772-.001c-7.024-.001-12.862.056-12.972.126m34.7.075c-.04.115-.095.771-.12 1.459l-.045 1.25h-1.334l-.05-1.25c-.052-1.296-.272-1.857-.45-1.147-.055.22-.078.962-.05 1.649l.05 1.248.886.108c1.564.191 1.368.642-.28.642-1.468 0-1.523-.071-1.523-1.95 0-1.267-.046-1.55-.25-1.55-.34 0-.37 3.525-.034 3.805.12.099.85.202 1.625.229l1.41.049.095 3.417h25.994l-.09-8.084-12.88-.041c-10.18-.033-12.896.002-12.954.166m34.67.5c-.056.39-.08 2.209-.052 4.042l.05 3.333h8.667v-3.881c0-3.269-.04-3.906-.25-4.039-.14-.088-2.036-.159-4.282-.16l-4.03-.003-.102.708m9.833 0c-.218 1.525-.022 7.375.248 7.375.265 0 .473-6.306.25-7.541-.137-.756-.377-.676-.498.166m24.834.002c-.056.389-.08 2.207-.052 4.04l.05 3.333 8.756.089-.1-8.089-8.563-.08-.1.707m11.53-.604c-.227.227-.136 8.095.093 8.019.156-.052.22-1.007.253-3.856.04-3.486-.04-4.468-.346-4.163M101 64.181c0 3.137.046 3.998.208 3.944.225-.075.4-6.352.208-7.417-.27-1.486-.416-.257-.416 3.473m29 0c0 3.137.046 3.998.208 3.944.225-.075.4-6.352.208-7.417-.27-1.486-.416-.257-.416 3.473m14.417-3.473c-.192 1.065-.017 7.342.208 7.417.163.054.208-.807.208-3.944 0-3.73-.147-4.959-.416-3.473m21.75 3.473c0 3.137.045 3.998.208 3.944.218-.072.405-6.793.21-7.583-.3-1.181-.42-.059-.42 3.639m37.767-3.751c-.055.145-.1.78-.1 1.412v1.148l-4.083.093v2.486c0 1.841.054 2.505.208 2.556.16.053.21-.454.21-2.177 0-2.647-.192-2.448 2.347-2.448h1.82v-1.667c0-1.535-.148-2.056-.4-1.403m126.336.07c-.055.229-.12.867-.144 1.417l-.043 1-2.117.083c-2.63.103-2.486-.056-2.43 2.722.06 2.965.363 3.128.426.23.056-2.554-.056-2.452 2.695-2.452 2.076 0 2.012.056 1.995-1.75-.012-1.22-.223-1.909-.383-1.25m14.508-.222c-.185.184-.13 7.69.055 7.805.1.068.167-1.276.167-3.906l-.056-4.01c-.03 0-.105.05-.166.111m17.033-.103c-.012.041-.068.937-.125 1.992l-.103 1.916h-9.166l-.084-1.833c-.115-2.532-.416-2.321-.416.292v2.041l5.125.044c4.037.035 5.128 0 5.14-.166.115-1.743-.165-4.987-.37-4.286m16.022 4.006c0 3.137.046 3.998.21 3.944.218-.072.404-6.793.2-7.583-.29-1.181-.42-.059-.42 3.639M243.26 60.514c-.046.13-.105.723-.13 1.319l-.046 1.084-1.833.041c-2.85.064-2.583-.216-2.583 2.712 0 2.268.122 2.953.4 2.233.055-.145.1-1.157.1-2.25s.018-1.995.04-2.005 1.017-.067 2.21-.125l2.166-.106.05-1.402c.045-1.293-.156-2.104-.373-1.501m-37.76 1.647c0 2.024.02 2.006-2.31 2.006S201 64.04 201 66.184c0 1.1.066 1.816.167 1.816s.166-.575.166-1.391c0-1.874.08-1.942 2.29-1.942 2.363 0 2.21.151 2.21-2.185 0-1.21-.065-1.982-.166-1.982s-.167.665-.167 1.661m38.925-1.481c-.047.13-.106.949-.13 1.82l-.044 1.583-4.083.094v2.009c0 2.604.37 2.766.5.217l.083-1.653 1.914-.047c2.33-.058 2.218.053 2.18-2.149-.028-1.664-.207-2.46-.42-1.874m86.908 1.533c0 2.093.202 1.932-2.5 1.996l-1.75.041v1.903c0 1.374.058 1.922.21 1.972.156.052.21-.317.21-1.486.003-2.046-.102-1.953 2.253-2.008l1.994-.048-.057-1.916c-.075-2.479-.36-2.838-.36-.454m21.834-.22v1.513l3.875-.045 3.875-.044.048-1.375c.045-1.279.025-1.375-.284-1.375-.294 0-.338.128-.382 1.125l-.05 1.125-3 .047c-3.935.062-3.75.122-3.75-1.207 0-.589-.075-1.117-.167-1.174-.106-.065-.166.444-.166 1.41m-253.5 2.34c0 3.148.035 3.667.25 3.667s.25-.519.25-3.667-.036-3.666-.25-3.666-.25.518-.25 3.666m43.333 0c0 3.556.01 3.667.333 3.667s.334-.111.334-3.667-.01-3.666-.334-3.666-.333.111-.333 3.666m21.833 0c0 3.148.036 3.667.25 3.667s.25-.519.25-3.667-.035-3.666-.25-3.666-.25.518-.25 3.666m-142.03 8.265c-.03.931.017 1.656.114 1.736.327.27 29.026.186 29.25-.086.217-.261.18-2.955-.043-3.179-.253-.252-.375.155-.434 1.444l-.06 1.32-2.44.008c-2.91.009-24.944.008-25.483-.001-.348-.006-.375-.082-.377-1.048-.005-2.279-.453-2.443-.528-.194m34.817-1.496c-.346.346-.125 3.194.255 3.288.492.121 28.567.122 28.883.001.25-.097.36-2.388.14-2.96-.21-.545-.4-.037-.4 1.069 0 .631-.072 1.192-.16 1.247-.118.072-24.174.153-27.88.094-.452-.008-.458-.021-.47-1.133-.012-1.165-.16-1.813-.368-1.606m30.477.065c-.05.137-.112 1.037-.136 2l-.044 1.75-15.25.045c-8.388.026-15.42.005-15.625-.044-.358-.087-.375-.167-.375-1.755 0-1.382-.043-1.663-.256-1.663s-.248.29-.208 1.958l.047 1.959h32.167l.047-1.964c.044-1.832-.132-2.925-.367-2.286m24.853.056c-.05.131-.1 1.127-.133 2.215l-.043 1.979 9.477.043c7.472.034 9.506-.002 9.61-.167.155-.244.18-3.365.033-3.918-.23-.856-.395-.264-.398 1.417-.001.985-.062 1.886-.135 2.001-.105.165-2.025.201-9.04.167l-8.906-.043-.084-1.862c-.08-1.797-.192-2.33-.383-1.832m31.528-.215c-.012.042-.068.938-.125 1.992l-.103 1.917h-9.167l-.048-1.748c-.047-1.715-.25-2.457-.45-1.651-.055.219-.078 1.186-.05 2.149l.048 1.75 5.125.044c4.038.034 5.128-.001 5.14-.167.115-1.742-.164-4.986-.37-4.286m21.786.159c-.05.137-.112 1.037-.136 2l-.045 1.75-4.57.044c-5.314.052-4.84.256-4.843-2.086-.001-.94-.07-1.708-.15-1.708-.17 0-.347 4.016-.186 4.21.06.071 2.39.108 5.18.084l5.072-.044.047-1.964c.044-1.832-.13-2.925-.366-2.286m8.674.208c-.188.701-.115 2.743.105 2.925s24.026.271 24.75.091c.39-.098.6-3.224.226-3.224-.248 0-.35.472-.35 1.597 0 .996-.026 1.07-.375 1.075-3.84.062-23.664-.01-23.787-.086-.095-.058-.172-.702-.172-1.43 0-1.276-.186-1.725-.395-.948m37.812-.185c-.052.135-.073 1.142-.047 2.236l.047 1.991h27.833l.05-1.667c.027-.917.005-1.913-.05-2.213-.194-1.053-.417-.335-.42 1.348-.001.934-.062 1.793-.135 1.908-.106.165-2.908.2-13.456.166l-13.323-.042-.048-1.831c-.044-1.712-.228-2.48-.452-1.896m34.667 0c-.052.135-.074 1.142-.048 2.236l.048 1.991 5.146.044c3.66.031 5.213-.011 5.375-.146.26-.215.33-3.564.083-3.954-.243-.383-.354.212-.354 1.895v1.562l-.542.098c-.298.054-2.492.076-4.875.049l-4.333-.048-.048-1.831c-.045-1.712-.228-2.48-.452-1.896m8.864-.082c-.063.063-.114.66-.114 1.327s-.078 1.26-.173 1.319c-.145.089-4.286.155-6.112.096l-.534-.017-.05-1.208c-.07-1.695-.372-1.522-.43.245-.06 1.774-.446 1.628 4.214 1.582l3.5-.035.05-1.569c.044-1.451-.07-2.021-.35-1.74m34.662.248c-.058.217-.106.863-.107 1.436l-.003 1.041-2.54.009c-11.107.036-21.192-.008-21.465-.094-.28-.089-.327-.257-.327-1.166 0-.584-.075-1.109-.167-1.165-.106-.066-.166.413-.166 1.317 0 1.21.045 1.445.307 1.585.196.105 4.743.153 12.542.131l12.234-.033.048-1.462c.05-1.503-.145-2.382-.355-1.599m1.483-.005c-.05.219-.112 1.111-.135 1.982l-.04 1.584-13.323.042c-10.548.034-13.35-.001-13.456-.166-.073-.115-.134-.978-.135-1.918s-.07-1.708-.152-1.708c-.168 0-.348 4.015-.188 4.208.057.069 6.325.106 13.93.083l13.825-.041.047-2.07c.044-1.946-.146-2.967-.37-1.996m7.24 1.898v2.248l27.75-.08.047-1.991c.075-3.149-.325-3.469-.464-.371l-.083 1.862H300.25l-.04-1.584c-.085-3.221-.542-3.292-.542-.084m25.943-1.893c-.058.217-.106.863-.108 1.436l-.002 1.041-2.542.011c-8.862.036-21.177-.023-21.305-.103-.084-.052-.153-.667-.153-1.368 0-.778-.06-1.211-.153-1.115-.2.196-.296 2.754-.126 3.029.095.153 2.997.192 12.4.165l12.286-.035.048-1.462c.05-1.503-.146-2.382-.355-1.599m10.3-.145c-.05.128-.068.901-.04 1.719l.05 1.487 3.7.025c4.363.03 4.108.147 4.024-1.841-.092-2.196-.52-2.256-.617-.088-.06 1.297-.068 1.321-.5 1.336a314.11 314.11 0 0 1-5.732-.004l-.46-.012V72.51c0-1.218-.21-1.859-.424-1.299m34.67.158c-.052.21-.073.982-.046 1.715l.05 1.333 3.497.05c4.578.065 4.254.181 4.25-1.512-.004-2.221-.444-2.458-.535-.288l-.046 1.083-2.833.096c-1.56.053-3.077.062-3.375.02L371 73.79v-1.302c0-1.272-.228-1.881-.42-1.119m8.85-.202c-.05.137-.112 1.037-.136 2l-.044 1.75-4.5.046c-5.785.061-5.228.259-5.286-1.882-.068-2.502-.38-2.26-.38.294v2.042h10.667l.047-1.964c.044-1.832-.13-2.925-.367-2.286M21.37 73.292l.047 2.125h32.166l.047-2.138c.03-1.436-.01-2.103-.125-2.032-.1.061-.172.804-.172 1.757 0 1.462-.037 1.671-.322 1.823-.35.187-30.433.257-30.914.072-.214-.082-.264-.392-.264-1.653 0-1.587-.084-2.079-.356-2.079-.088 0-.134.904-.107 2.125m69.7-1.75c-.052.206-.072 1.162-.045 2.125l.048 1.75h10.334l.048-1.75c.05-1.836-.03-2.5-.302-2.5-.096 0-.164.704-.166 1.708-.003 2.342.472 2.138-4.842 2.086l-4.572-.044-.047-1.875c-.044-1.748-.237-2.382-.456-1.5m38.92.865c0 .682-.076 1.287-.17 1.344-.227.141-14.84.132-15.207-.009-.234-.089-.29-.317-.29-1.167 0-.58-.075-1.102-.166-1.158-.106-.066-.167.413-.167 1.317 0 1.209.046 1.445.306 1.585.32.171 15.52.238 15.957.07.246-.095.352-2.396.136-2.959-.23-.6-.4-.187-.4.977m43.5.913v2.174l13.733.004 13.96-.083c.18-.069.215-.489.168-1.959-.077-2.381-.362-2.793-.362-.523 0 1.074-.07 1.738-.2 1.867-.3.29-26.477.29-26.767 0-.128-.128-.2-.783-.2-1.823 0-.903-.074-1.67-.166-1.727-.108-.067-.167.664-.167 2.07m65.167-.913c0 .682-.072 1.284-.16 1.338-.133.083-11.984.138-21.29.099l-2.535-.011-.05-1.208c-.027-.665-.124-1.208-.215-1.208-.263 0-.31 2.776-.052 2.936.235.145 24.2.179 24.567.035.244-.094.348-2.398.134-2.958-.23-.6-.4-.187-.4.977m95.743-1.032c-.05.126-.067 1.087-.04 2.135l.048 1.907h10.5l.046-2.138c.032-1.436-.01-2.103-.125-2.032-.1.061-.17.804-.17 1.757 0 2.134.344 1.996-4.976 1.996-5.352 0-4.858.196-4.858-1.925 0-1.563-.187-2.316-.423-1.7M92.333 72.804c0 1.825-.314 1.691 3.97 1.694 3.988.003 3.864.056 3.864-1.671 0-1.789-.457-1.963-.534-.202l-.05 1.125-3.083.047c-4.03.062-3.833.124-3.833-1.207 0-.589-.075-1.117-.167-1.173-.106-.066-.167.436-.167 1.387m43.4-1.239c-.134.349.008 2.565.174 2.733.205.205 7.04.241 7.42.039.512-.274.518-2.837.006-2.837-.3 0-.333.111-.333 1.17v1.17l-6.75-.09-.05-1.083c-.052-1.115-.267-1.621-.466-1.102m21.766 1.169c0 1.836-.156 1.766 3.917 1.766 4.047 0 3.916.056 3.916-1.673 0-1.789-.457-1.963-.534-.202l-.05 1.125-3.083.047c-4.03.062-3.834.124-3.834-1.207 0-.589-.075-1.117-.166-1.173-.106-.066-.167.413-.167 1.317" fill="#2d2e35"/><path d="M0 43.417v43.416h400V0H0v43.417m198.125-26.661c.144.046.208.481.208 1.402 0 1.541-.078 1.477 1.9 1.55l1.16.042-.048 2.333c-.063 3.024-.356 3.41-.356.468 0-1.836-.042-2.198-.264-2.283-.406-.156-1.956-.115-2.23.059-.28.177-.25.193.912.445l.666.145.048 1.89c.037 1.481 0 1.876-.167 1.82-.15-.049-.23-.537-.262-1.596-.04-1.297-.095-1.551-.363-1.695-.766-.41-.982.019-1.047 2.081l-.042 1.333h-25.833l-.1-8.081 10.878-.043 14.92.13m28.98-.089H237.5v1.313c0 1.608.05 1.657 1.758 1.721l1.325.049.048 2.167c.05 2.254-.038 3.076-.302 2.812-.083-.083-.173-1.125-.2-2.315l-.047-2.164h-1.208c-1.236 0-1.762.289-.71.389.924.087 1 .236 1 1.951 0 1.576-.085 2.077-.35 2.077-.082 0-.15-.643-.15-1.428 0-1.317-.17-2.076-.465-2.07-.484.011-.62.389-.7 1.949l-.084 1.632h-25.834l-.047-3.667c-.062-4.87-.294-4.394 2.174-4.464l2.52-.005s5.157.053 10.875.053m62.554.102c.044.044.12.696.17 1.448l.09 1.366 1.462.049 1.463.048-.046 2.494c-.058 3.164-.347 3.342-.463.285l-.083-2.209-1.208-.049c-1.406-.057-1.864.399-.5.498l.708.051.047 1.958c.04 1.649.007 1.959-.203 1.959-.202 0-.258-.324-.297-1.709-.047-1.698-.05-1.708-.464-1.708-.408 0-.417.028-.458 1.417l-.127 1.787-.086.371-12.79.002c-7.034 0-12.885-.059-13-.133-.163-.104-.2-1.026-.167-4.039l.045-3.905 8.583-.083c8.915-.087 17.185-.038 17.325.102m34.627-.025c.13.048.22.566.25 1.456l.048 1.383 2.926.097-.046 2.494c-.06 3.164-.348 3.342-.463.285l-.083-2.209h-1.125c-1.213 0-1.55.279-.506.417l.63.083.047 1.974c.037 1.548.001 1.959-.167 1.903-.15-.049-.228-.546-.262-1.639-.053-1.704-.152-1.949-.678-1.667-.307.164-.35.363-.393 1.807l-.047 1.622h-25.834v-8l2.084-.083c2.45-.098 23.323-.03 23.618.077m48.48-.077h3.9l.096 2.916 3 .167v2.458c0 3.147-.3 3.328-.417.251l-.083-2.209h-1.208c-1.125 0-1.726.272-.84.38 1.215.149 1.147.021 1.095 2.069-.063 2.474-.43 2.747-.5.372-.082-2.78-.987-2.731-1.13.062l-.084 1.617H363.75v-8l2.083-.097c1.146-.053 2.3-.072 2.563-.041s2.23.055 4.368.055M50.702 18.125l.048 1.458 2.833.167.046 2.458c.03 1.601-.013 2.459-.125 2.459s-.17-.795-.17-2.164c0-2.482.058-2.403-1.675-2.305-1.007.058-1.168.356-.237.438.457.04.632.149.754.469.225.591.203 3.514-.027 3.657-.34.209-.476-.331-.48-1.892-.002-1.249-.053-1.566-.264-1.647-.48-.184-.654.268-.738 1.91l-.084 1.617H20.25l-.045-3.83c-.025-2.106-.008-3.925.037-4.041.065-.17 3.13-.212 15.246-.212h15.166l.048 1.458m34.667 0l.048 1.458 3 .167v2.458c0 3.147-.3 3.328-.417.251l-.083-2.209h-1.21c-1.14 0-1.78.279-.875.38 1.25.14 1.183.016 1.13 2.069-.063 2.474-.43 2.747-.5.372-.083-2.78-.988-2.731-1.132.062l-.083 1.617H55.083l-.09-8.083H85.32l.05 1.458m17.43-.001c.056 1.58-.028 1.512 1.952 1.584l1.167.042.046 2.474c.036 1.948.001 2.458-.167 2.403-.154-.052-.225-.651-.26-2.18-.054-2.411-.006-2.347-1.673-2.249-1.08.065-1.204.357-.197.469l.75.083v1.958c0 2.296-.31 2.813-.375.625-.055-1.835-.137-2.166-.54-2.166-.502 0-.67.519-.67 2.069 0 1.777.698 1.618-6.833 1.56l-6.083-.046-.045-3.83c-.025-2.106-.008-3.926.037-4.043.065-.17 1.39-.205 6.462-.171l6.38.044.048 1.374m26.035-.144c0 1.608.05 1.657 1.758 1.721l1.326.049.048 2.167c.05 2.254-.04 3.076-.302 2.812-.084-.083-.174-1.125-.2-2.315l-.047-2.164h-1.21c-1.235 0-1.762.289-.71.389.916.086 1 .244 1 1.84-.003 1.522-.11 2.188-.35 2.188-.08 0-.147-.643-.147-1.428 0-1.317-.17-2.076-.464-2.07-.485.011-.62.389-.702 1.949l-.084 1.632h-8.5l-.09-8.083h8.672v1.313m13 .187l.084 1.416 2.985.167-.05 2.417c-.027 1.329-.08 2.448-.118 2.486-.22.224-.324-.421-.373-2.34l-.055-2.16-1.195.048c-1.296.053-1.553.322-.455.476.92.13.92.13.983 2.086.055 1.669.043 1.737-.29 1.737-.328 0-.35-.09-.35-1.48 0-2.728-1.122-2.628-1.202.108l-.048 1.622-4.063.045c-2.857.031-4.13-.012-4.29-.146-.24-.199-.346-6.778-.124-7.61l.102-.378 8.376.089.083 1.417m21.667-.187c0 1.608.05 1.657 1.758 1.721l1.325.049.046 2.458c.04 2.093.01 2.459-.203 2.459-.207 0-.258-.379-.296-2.209l-.047-2.208h-1.208c-1.317 0-1.655.272-.534.43.912.128.987.293 1 2.195.003 2.277-.435 2.377-.523.119-.043-1.11-.124-1.548-.308-1.664-.667-.422-.88-.037-.987 1.781l-.096 1.639-3.834.047c-2.108.026-4.002.006-4.208-.045L155 24.66v-3.885c0-2.138.05-3.936.11-3.997s1.974-.111 4.25-.111h4.14v1.313m182.667 0c0 1.608.05 1.657 1.758 1.721l1.325.049.048 2.167c.05 2.254-.038 3.076-.302 2.812-.084-.083-.173-1.125-.2-2.315l-.047-2.164h-1.208c-1.236 0-1.763.289-.71.389.924.087 1 .236 1 1.951 0 1.576-.084 2.077-.35 2.077-.082 0-.15-.643-.15-1.428 0-1.317-.17-2.076-.464-2.07-.484.011-.62.389-.7 1.949l-.085 1.632-6.322.043c-4.944.034-6.352-.002-6.456-.166-.154-.243-.184-7.024-.033-7.585l.1-.375h12.795v1.313M46.083 31.583v4H33.25l-.048-1.574c-.065-2.098.004-2.043-2.526-2.006l-5.718.014L21.333 32v-2.083c0-1.146.067-2.084.15-2.084.267 0 .35.501.35 2.079v1.551l.542.1c.866.161 10.356.103 10.627-.064.646-.4-.272-.496-5.157-.538l-5.06-.044.034-1.581c.02-.869.068-1.613.108-1.652.194-.195.33.292.405 1.454l.084 1.279h9.666l.043-1.084c.023-.595.08-1.253.13-1.46l.086-.377 12.742.087v4m6.215-2.01l-.048 1.344-4.167.166-.046 2.209c-.026 1.214-.114 2.208-.196 2.208-.137 0-.334-4.59-.2-4.875.03-.069.95-.125 2.046-.125h2v-1.072c0-.59.082-1.284.183-1.542l.184-.469.156.406c.086.224.134 1.011.108 1.75m11.288-1.698c.05.206.07 2.025.044 4.042l-.047 3.666h-8.5l-.09-8.083h8.5l.092.375m24.902 2.073c.007 1.071-.06 1.909-.154 1.968s-4.93.099-10.754.094l-10.59-.009-.162.427c-.09.235-.162 1.066-.162 1.847 0 1.061-.053 1.402-.21 1.35-.243-.08-.38-3.406-.154-3.754.11-.168 2.29-.213 10.51-.216 5.984-.002 10.544-.069 10.78-.158.398-.152.408-.199.408-1.965 0-.995.054-1.864.12-1.93.238-.238.357.517.368 2.346m18.68-.948l.083 1.417 2.833.166v2.459c0 3.146-.3 3.327-.416.251l-.084-2.21h-1.125c-1.264 0-1.504.251-.47.491l.68.157v1.884c0 1.564-.043 1.885-.25 1.885s-.25-.295-.25-1.657c0-1.721-.1-1.979-.658-1.681-.29.155-.336.379-.378 1.799l-.048 1.622H89.917l-.045-3.829c-.025-2.107-.008-3.926.037-4.044.065-.17 1.804-.204 8.628-.17l8.546.043.084 1.417m21.666 2.586v4.086l-8.583-.089-.045-3.829c-.025-2.107-.008-3.925.037-4.042.062-.164 1.047-.212 4.336-.212h4.255v4.086m3.083-3.544c.193 1.067.017 7.508-.208 7.583-.163.054-.208-.824-.208-4.028 0-3.805.146-5.051.416-3.555m9.834 3.541v4l-3.917.047c-2.154.026-4.085.006-4.29-.045-.42-.103-.6-7.02-.2-7.766.166-.311.354-.323 4.29-.28l4.118.044v4m3.083 0c0 3.522-.1 4.573-.4 3.819-.133-.346-.13-6.712.003-7.378.257-1.286.396-.036.396 3.559m18.667.003v4.086l-8.417-.089-.045-3.829c-.024-2.107-.008-3.925.037-4.042.063-.164 1.03-.212 4.253-.212h4.172v4.086m3.128.155c-.028 2.365-.106 3.759-.21 3.759-.18 0-.33-7.384-.16-7.83.288-.746.41.613.37 4.071m9.958-3.866c.05.206.07 2.025.044 4.042l-.047 3.666-4.155.045c-3.213.034-4.185-.003-4.29-.167-.157-.248-.187-6.677-.035-7.44l.104-.521h8.286l.092.375M202.833 29l.084 1.417 2.833.166.046 2.459c.03 1.6-.013 2.458-.125 2.458s-.17-.768-.17-2.077c0-1.884-.03-2.094-.322-2.25-.43-.231-2.128-.221-2.273.012-.16.258.244.476.887.479l.54.003v2.014c0 2.659-.374 2.763-.5.139-.078-1.636-.104-1.74-.452-1.789-.457-.065-.532.21-.59 2.136l-.042 1.416h-8.667l-.166-3.5-6.75-.033c-7.957-.039-7.5-.135-7.503 1.579-.002 1.252-.123 1.871-.365 1.871-.176 0-.124-3.566.056-3.744.057-.057 3.357-.12 7.333-.138 6.3-.03 7.23-.067 7.23-.285s-.963-.25-7.667-.25h-7.667l-.046 2.209c-.038 1.811-.09 2.208-.292 2.208s-.245-.391-.245-2.333c0-1.284-.02-2.39-.042-2.459s3.56-.162 7.96-.208l8-.083.042-1.084c.024-.595.082-1.253.13-1.461l.086-.378 8.576.089.083 1.417m12.917 2.583v4h-8.667l-.048-3.5c-.027-1.925-.005-3.745.05-4.044l.1-.545 4.283.045 4.284.044v4m52.167 0v4h-8.667l-.05-3.5c-.027-1.925-.004-3.745.05-4.044l.098-.545 4.284.045 4.284.044v4m34.833-3.541c.053.298.076 2.116.05 4.041l-.05 3.5h-8.667l-.045-3.829c-.024-2.107-.008-3.925.037-4.042.063-.164 1.046-.212 4.33-.212h4.248l.098.542m25.993 0c.05.298.11.954.132 1.458l.042.917 1.416.083c1.214.071 1.415.125 1.403.375-.008.16-.026 1.267-.042 2.458-.037 2.884-.337 2.852-.397-.041l-.047-2.209-1.066-.05c-1.552-.073-1.937.423-.46.59.665.075.752.135.84.584.13.651.13 2.69 0 3.029-.233.607-.4.182-.402-1.028-.002-1.56-.102-1.986-.49-2.087-.69-.181-.842.141-.842 1.801 0 1.929.435 1.77-4.666 1.708l-3.917-.047-.047-1.706c-.06-2.11.813-1.897-7.536-1.84l-6.75.046-.084 1.75c-.112 2.36-.403 2.204-.463-.249l-.047-1.917 7.047-.003c7.215-.002 7.797-.034 7.797-.433 0-.241-14.958-.365-15.57-.13-.222.085-.264.444-.264 2.25 0 1.816-.04 2.149-.254 2.149s-.248-.345-.208-2.458l.046-2.459 16.25-.086v-1.235c0-1.926-.406-1.762 4.343-1.762h4.142l.09.542m21.723.87c.058 1.557.082 1.582 1.562 1.585 1.66.004 1.563-.153 1.502 2.463-.07 2.939-.363 3.363-.363.523 0-2.424-.033-2.484-1.325-2.48-1.567.004-1.746.459-.26.658l.667.089.047 1.875c.04 1.575.007 1.875-.202 1.875-.2 0-.26-.312-.297-1.606-.043-1.455-.08-1.619-.396-1.735-.662-.244-.813.057-.902 1.793l-.083 1.631H333.25l-.05-3.5c-.027-1.925-.004-3.744.05-4.043l.098-.543 17.068.086.05 1.329m26.117 2.671v4H359.25l-.047-3.666c-.026-2.017-.006-3.836.045-4.043l.092-.377 17.243.086v4m3.212.095c-.06 5.19-.362 5.214-.423.034-.046-3.825-.002-4.409.303-4.103.102.101.147 1.662.12 4.069m-292.83-2.139l-.048 1.378-10.834.086-10.875.125c-.023.021-.04 1.014-.04 2.205 0 1.334-.064 2.167-.167 2.167s-.167-.944-.167-2.499v-2.499l21.584-.085.045-1.167c.025-.642.086-1.279.136-1.417.21-.575.414.375.367 1.706m43.45-1.331c.192 1.062.017 7.176-.208 7.25-.162.055-.208-.79-.208-3.861 0-3.654.15-4.866.416-3.389m110.15-.278c.178.466.113 3.876-.077 3.994-.098.06-4.93.101-10.74.091-8.342-.015-10.6.025-10.697.191-.075.116-.174.923-.22 1.794-.046.889-.156 1.583-.25 1.583-.205 0-.32-3.579-.122-3.777.077-.077 4.82-.147 10.538-.156l10.783-.162c.37-.141.385-.218.385-1.984 0-1.685.14-2.244.4-1.574m50.782 1.487l.035 1.5-10.817.086-10.858.125c-.023.021-.04 1.014-.04 2.205 0 1.832-.04 2.167-.255 2.167s-.248-.345-.208-2.458l.046-2.459 21.5-.166.043-1c.098-2.295.5-2.295.555 0m1.45.43l-.047 2.179-21.5.057-.083 1.75c-.114 2.394-.405 2.263-.464-.208l-.047-1.958 5.13-.01h10.297c2.842.005 5.41-.037 5.71-.093l.54-.101v-1.635c0-1.664.082-2.161.356-2.161.09 0 .134.927.108 2.18m85.435-1.917c.246.641.1 7.57-.15 7.57-.215 0-.25-.546-.25-3.917 0-3.547.098-4.438.4-3.653M53.63 31.923c-.026.024-.93.076-2.007.115-2.414.086-2.443.111-2.45 2.087-.003.802-.075 1.375-.172 1.375-.255 0-.218-3.615.038-3.774.113-.069.882-.115 1.71-.1s1.747-.051 2.045-.146l.54-.173v-1.625c0-2.367.242-2.237.297.159.026 1.121.026 2.057 0 2.082m185.46-3.711c.052.208.072.902.044 1.541l-.05 1.164-10.833.086-10.875.125c-.023.021-.042 1.014-.042 2.205 0 1.832-.04 2.167-.254 2.167s-.248-.345-.208-2.458l.046-2.459 21.666-.166.05-1.292c.047-1.253.263-1.685.457-.913m-95.422 3.538c0 3.639-.01 3.75-.334 3.75s-.333-.111-.333-3.75.01-3.75.333-3.75.334.111.334 3.75m21.666 0c0 3.222-.035 3.75-.25 3.75s-.25-.528-.25-3.75.036-3.75.25-3.75.25.528.25 3.75m-123.5 10.669v4.085l-12.916-.087-.047-3.667c-.026-2.017-.006-3.835.044-4.042l.092-.375h12.827v4.086m34.834-2.586l.083 1.417 2.833.167v2.458c0 3.146-.3 3.327-.416.251l-.084-2.209H77.93c-1.3 0-1.72.325-.65.503.35.058.73.135.844.171.334.104.293 3.742-.042 3.742-.203 0-.25-.274-.252-1.458-.003-1.637-.11-1.929-.683-1.848-.383.054-.4.121-.48 1.723l-.084 1.667L55 46.502v-3.973c0-2.185.05-4.024.112-4.086s4.918-.093 10.792-.069l10.68.043.084 1.416m21.628 2.628l.044 4.045-8.422-.089-.045-3.83c-.025-2.106-.008-3.926.037-4.045.065-.169.963-.205 4.212-.17l4.13.045.045 4.044m12.987-3.919c.074.114.172.771.218 1.458l.083 1.25 1.417.083c1.338.079 1.416.105 1.405.459-.007.206-.026 1.312-.042 2.458-.018 1.258-.096 2.083-.196 2.083s-.167-.827-.167-2.149c0-2.417.036-2.353-1.305-2.348-.933.003-1.42.237-1.028.495.137.09.522.165.854.166.772.004 1.09 1.57.71 3.479-.185.925-.397.372-.397-1.037 0-1.549-.2-2.004-.842-1.913-.395.056-.4.11-.49 1.724l-.083 1.667h-8.5L102.822 43h-1.3l-.048 1.708c-.066 2.368-.38 2.161-.38-.25v-1.875l.834-.083c1.213-.121 1.16-.565-.075-.635-1.733-.098-1.675-.177-1.675 2.305 0 1.829-.04 2.163-.255 2.163s-.248-.345-.208-2.458l.046-2.458 3.083-.096v-1.23c0-1.92-.393-1.758 4.258-1.758 3.062 0 4.09.051 4.19.209m17.55 3.877v4.087l-8.583-.089-.045-3.83c-.025-2.106-.008-3.925.037-4.042.062-.164 1.047-.212 4.336-.212h4.255v4.086m3.083-3.544c.193 1.068.017 7.509-.208 7.583-.163.055-.208-.824-.208-4.027 0-3.806.146-5.051.416-3.556m31.584 3.542V46.5h-14.903c-8.197 0-15.022-.046-15.167-.101-.31-.119-.398-6.856-.1-7.638l.163-.428H163.5v4.084m3.128.157c-.028 2.366-.106 3.76-.21 3.76-.18 0-.33-7.385-.16-7.83.288-.747.41.613.37 4.07m9.958-3.866c.05.207.07 2.025.044 4.042l-.047 3.667h-8.5l-.05-3.334c-.028-1.833-.004-3.652.05-4.041l.102-.709h8.307l.092.375m1.875 3.982c-.028 2.288-.106 3.644-.21 3.644-.188 0-.33-6.985-.154-7.667l.107-.417.15.398c.084.219.132 2.038.107 4.042m24.29-.273v4h-8.667l-.047-3.667c-.026-2.017-.005-3.837.046-4.044l.092-.378 8.576.089v4m1.583.014c0 3.203-.045 4.082-.208 4.027-.218-.072-.405-6.957-.21-7.75.292-1.187.42-.051.42 3.723m11.417-.014v4h-8.667l-.048-3.5c-.027-1.925-.005-3.745.05-4.045l.1-.544 8.567.089v4m1.545.094c-.058 5.043-.36 5.328-.427.406-.05-3.6.03-4.752.313-4.469.094.094.14 1.757.114 4.063m1.538.013c0 3.129-.045 3.989-.208 3.934-.22-.072-.404-6.959-.21-7.756.277-1.13.417.153.417 3.822m23-2.691l.084 1.417 1.166.042c2.005.073 1.842-.163 1.78 2.575-.03 1.31-.087 2.413-.125 2.452-.22.219-.33-.407-.404-2.291l-.083-2.111-.822-.052c-1.222-.078-1.78.087-1.354.399.178.13.563.236.857.236.684 0 .736.153.736 2.18 0 2.405-.465 2.429-.536.028l-.048-1.625-.536-.051c-.64-.062-.693.079-.755 2.051l-.042 1.334h-12.833l-.045-3.83c-.025-2.106-.008-3.926.037-4.044.065-.17 1.39-.205 6.462-.17l6.38.044.083 1.416m26.084 2.584v4h-8.667l-.05-3.334c-.027-1.833-.004-3.653.053-4.044l.102-.711 8.562.089v4m3.21.157c-.028 2.366-.106 3.76-.21 3.76-.18 0-.33-7.385-.16-7.83.288-.747.41.613.37 4.07m31.622-3.699c.053.298.076 2.117.05 4.042l-.05 3.5h-8.667l-.045-3.83c-.024-2.106-.008-3.925.037-4.042.063-.164 1.046-.212 4.33-.212h4.248l.098.542m3.045 3.636c-.06 5.19-.362 5.214-.423.034-.046-3.824-.002-4.409.303-4.103.102.101.147 1.663.12 4.069m22.87-3.849c.112.209.16 1.67.13 4.041l-.045 3.714h-8.5l-.047-3.667c-.026-2.017-.006-3.835.045-4.042l.092-.375h4.074c3.883 0 4.083.016 4.25.329m1.964 4.207c-.028 2.26-.105 3.533-.21 3.506-.187-.046-.327-7.453-.15-7.871.264-.622.402 1.049.36 4.365m11.21-4.108c.382 1.004.2 7.557-.212 7.658-.206.05-2.175.07-4.375.045l-4-.047-.05-3.5c-.027-1.925-.004-3.744.05-4.042l.098-.542h8.327l.162.428m21.75-.053c.05.207.07 2.025.044 4.042l-.047 3.667H346.25l-.083-1.667c-.08-1.602-.1-1.669-.48-1.723-.573-.081-.68.211-.683 1.848-.004 1.988-.3 1.853-.367-.167-.07-2.18-.07-2.181.756-2.241 1.287-.094.893-.55-.475-.55h-1.167l-.083 2.25c-.07 1.852-.128 2.25-.334 2.25-.21 0-.25-.389-.25-2.5v-2.5l3-.167.045-1.25c.025-.687.08-1.344.12-1.458.06-.163 1.943-.209 8.66-.209h8.586l.092.375m13.042 3.753l.045 4.045-8.756-.089-.096-3.438-.904.104-.048 1.625c-.038 1.294-.097 1.625-.292 1.625s-.244-.344-.244-1.907v-1.907l.71-.051c1.3-.094.92-.551-.46-.551h-1.166l-.084 2.209c-.116 3.076-.416 2.895-.416-.251v-2.458l2.916-.097v-.972c0-.535.047-1.209.105-1.497l.105-.523 8.54.089.045 4.044m3.167.113c-.028 2.366-.107 3.76-.212 3.76-.18 0-.33-7.385-.158-7.83.287-.747.41.613.37 4.07m-249.4-3.699c.242.903.115 7.458-.145 7.458-.215 0-.25-.546-.25-3.916 0-3.552.115-4.586.395-3.542m75.438 3.542c0 2.5-.06 3.916-.166 3.916s-.167-1.416-.167-3.916.06-3.917.167-3.917.166 1.417.166 3.917m63.733-3.653c.245.64.11 7.569-.15 7.569-.215 0-.25-.546-.25-3.916 0-3.547.097-4.439.4-3.653m34.686.111c.164.669.01 7.542-.17 7.542-.105 0-.183-1.461-.21-3.959-.04-3.656.08-4.805.38-3.583m73.98-.111c.246.64.1 7.569-.15 7.569-.215 0-.25-.546-.25-3.916 0-3.547.098-4.439.4-3.653M47.965 40.208l-.048 1.542-2.167.101-2.203.125c-.02.013-.058.999-.084 2.191-.066 3.08-.38 2.838-.38-.292v-2.458L45 41.376c2.816-.061 2.667.022 2.667-1.463 0-.75.07-1.246.173-1.246.1 0 .155.557.125 1.541m131.7 2.5c.002 3.113-.033 3.625-.247 3.625-.265 0-.396-7.298-.137-7.558.296-.295.382.585.384 3.933m152.003-.115c0 2.383-.06 3.74-.167 3.74s-.167-1.392-.167-3.843c0-2.52.058-3.808.167-3.74.103.064.167 1.53.167 3.843M49.192 40.869c.066 2.192.15 2.109-2.195 2.167l-1.914.047L45 44.71c-.117 2.275-.417 2.094-.417-.252v-1.875l1.907-.047c2.4-.06 2.343-.01 2.343-2.09 0-2.243.29-1.903.36.423m116.14 1.798c0 3.148-.035 3.666-.25 3.666s-.25-.518-.25-3.666.036-3.667.25-3.667.25.519.25 3.667m-127.85 6.729c.133.161.177 1.369.145 4.042l-.045 3.812h-13l-.045-3.606c-.026-2.105.025-3.787.12-4.041l.166-.436h6.234c5.087 0 6.27.042 6.424.229m26.103.146c.05.206.07 2.025.044 4.041l-.047 3.667-8.583.089v-3.975c0-2.186.05-4.025.11-4.086s1.972-.111 4.247-.111h4.136l.092.375m34.71 3.753l.044 4.044-8.422-.089-.045-3.83c-.025-2.106-.008-3.926.037-4.044.065-.169.963-.206 4.212-.171l4.13.045.045 4.045m6.205-2.215c0 2.315-.037 2.253 1.363 2.253s1.69-.537.344-.634l-.707-.051.003-1.366c.004-2.216.443-2.448.535-.282.045 1.082.046 1.083.545 1.083h.5l.05-1.461.048-1.461 4.285.045 4.285.044.167 2.833 1.083.043c1.99.078 1.833-.144 1.833 2.627 0 1.498-.063 2.414-.166 2.414s-.167-.807-.167-2.088v-2.087l-.448-.171c-.66-.251-1.97-.132-1.97.179 0 .167.223.278.667.333l.667.084v1.902c0 1.375-.058 1.923-.21 1.973s-.21-.284-.2-1.32c-.003-1.783-.1-2.139-.58-2.139s-.578.356-.58 2.125l-.003 1.375h-8.666l-.003-1.375c-.003-2.172.048-2.104-1.64-2.16l-1.44-.048-.048-1.917c-.05-2.016.035-2.746.303-2.58.09.055.162.877.162 1.827m24.295 2.212l.044 4.041h-8.672v-3.972c0-2.185.05-4.023.114-4.086s1.993-.094 4.29-.069l4.178.044.045 4.042m3.166.259c-.033 2.756-.096 3.689-.253 3.741-.23.076-.318-7.793-.09-8.022.29-.291.384.867.342 4.281m9.79-.301v4h-8.5l-.045-3.606c-.026-2.121.024-3.786.122-4.044l.167-.439 8.256.089v4m21.71.045l.045 4.044-8.423-.089-.083-1.612c-.046-.886-.123-1.651-.172-1.7-.136-.135-9.658-.164-9.793-.029-.065.065-.144.862-.176 1.771-.055 1.593-.2 2.064-.42 1.278-.132-.493-.132-2.444 0-3.104l.104-.521h5.042c4.09 0 5.078-.043 5.233-.23.33-.399-.144-.436-5.484-.436-6.334 0-5.666-.277-5.666 2.351 0 2.038-.018 2.149-.334 2.149-.418 0-.525-4.467-.115-4.807.148-.123 2.05-.184 5.85-.189 6.545-.008 5.93.146 5.93-1.486 0-1.664-.39-1.531 4.322-1.48l4.095.045.044 4.045m3.167.113c-.028 2.365-.106 3.759-.21 3.759-.18 0-.33-7.385-.16-7.83.288-.747.41.613.37 4.071m9.855-4.012c.133.161.177 1.369.145 4.042l-.045 3.812h-8.5l-.045-3.606c-.026-2.105.025-3.787.12-4.041l.166-.436h3.984c3.177 0 4.022.046 4.174.229m26.267 3.854v4h-8.667l-.047-3.667c-.026-2.016-.006-3.835.045-4.041l.092-.375 8.577.083v4m1.583.014c0 3.204-.045 4.082-.208 4.028-.218-.073-.405-6.958-.21-7.75.292-1.188.42-.052.42 3.722m11.417-.014v4h-8.667l-.045-3.713c-.06-4.904-.598-4.386 4.51-4.332l4.2.045v4m3.083.107c0 3.129-.045 3.989-.208 3.935-.22-.073-.404-6.96-.21-7.757.277-1.13.417.153.417 3.822m22.917-.107v4l-8.417.089v-3.975c0-2.186.052-4.026.114-4.089s1.957-.094 4.21-.07l4.094.045v4m26.21.044l.045 4.045-8.756-.089-.05-3.333c-.027-1.834-.004-3.654.053-4.045l.102-.711 4.28.045 4.28.044.044 4.044m3.167.141c-.034 2.849-.096 3.805-.253 3.857-.23.076-.32-7.792-.093-8.019.306-.305.387.677.346 4.162m31.622-3.727c.053.298.076 2.117.05 4.042l-.05 3.5h-8.667l-.045-3.83c-.024-2.106-.008-3.925.037-4.041.063-.164 1.046-.212 4.33-.212h4.248l.098.541m3.045 3.727c-.034 2.849-.097 3.805-.253 3.857-.23.076-.32-7.792-.093-8.019.305-.305.387.677.346 4.162m22.87-3.94c.112.21.16 1.671.13 4.042l-.045 3.713h-8.5l-.05-3.5c-.027-1.925-.004-3.744.05-4.042l.098-.541h4.07c3.88 0 4.08.015 4.246.328m13.177.108c.096.254.147 1.936.12 4.041l-.045 3.606h-8.667l-.05-3.333c-.027-1.834-.004-3.652.052-4.042l.102-.708h8.32l.166.436m1.742.105c.223 1.236.015 7.542-.25 7.542-.212 0-.257-.522-.298-3.5-.05-3.525.02-4.583.298-4.583.084 0 .196.243.25.541m15.566-.312c.134.161.177 1.369.146 4.042l-.045 3.812h-8.667l-.166-3.333-1.167-.043c-2.065-.075-1.917.103-1.917-2.294 0-1.144.067-2.08.15-2.08.267 0 .35.501.35 2.078 0 1.768-.018 1.749 1.615 1.753 1.372.004 1.45-.499.104-.657l-.767-.091.035-1.58c.02-.869.068-1.613.108-1.653.2-.199.326.302.38 1.497l.06 1.32h1.13v-1.073c0-.59.073-1.265.163-1.5l.162-.427h4.067c3.248 0 4.105.046 4.257.229m6.182 1.729l.002 1.542h-1.903c-2.627 0-2.43-.191-2.43 2.351 0 2.038-.017 2.149-.333 2.149s-.334-.111-.334-2.313c0-2.81-.13-2.663 2.427-2.723l2-.048.045-1.25c.088-2.419.532-2.177.536.292m11.297 2.169l.045 4.045-8.756-.089-.05-3.333c-.028-1.834-.004-3.654.052-4.045l.102-.711 4.28.045 4.28.044.045 4.044m3.167.141c-.034 2.849-.097 3.805-.253 3.857-.23.076-.32-7.792-.093-8.019.305-.305.387.677.346 4.162M43.497 51.203l.003 1.453-4.083.094-.084 2.195c-.132 3.486-.454 3.288-.533-.327-.058-2.687-.302-2.431 2.367-2.493l1.75-.042.043-1c.1-2.34.533-2.243.537.12m1.467.477l-.047 2.07-2 .046c-2.487.057-2.574.128-2.58 2.079-.002.748-.074 1.292-.17 1.292-.265 0-.216-3.419.052-3.641.123-.102 1.09-.202 2.208-.229l2-.047.044-1.75c.048-1.917.123-2.316.383-2.056.1.099.147 1.013.12 2.236m34.666 0l-.047 2.07-6.3.023c-3.466.012-6.35.072-6.41.133s-.14.86-.178 1.776c-.046 1.141-.126 1.646-.255 1.604-.204-.068-.358-2.919-.194-3.576l.094-.373 12.744-.087.042-1.583c.048-1.847.155-2.454.4-2.219.093.094.142 1.04.115 2.232m21.786-1.805c.193 1.065.017 7.342-.208 7.417-.162.054-.208-.808-.208-3.945 0-3.73.147-4.959.416-3.472m29 0c.193 1.065.017 7.342-.208 7.417-.162.054-.208-.808-.208-3.945 0-3.73.147-4.959.416-3.472m48.046 3.616c-.028 2.274-.11 3.692-.212 3.718-.18.045-.332-7.257-.16-7.705.287-.743.412.605.37 3.987m27.37-.241c0 2.5-.06 3.917-.166 3.917s-.167-1.417-.167-3.917.06-3.917.167-3.917.166 1.417.166 3.917m11.462.042c-.058 5.097-.36 5.334-.425.333-.048-3.584.002-4.292.303-4.292.107 0 .15 1.404.122 3.959m26.333 0c-.06 5.222-.36 5.374-.423.212-.046-3.8-.02-4.171.293-4.171.118 0 .16 1.278.13 3.959m25.958-3.584c.164.669.01 7.542-.17 7.542-.106 0-.183-1.46-.212-3.958-.04-3.657.08-4.805.38-3.584m34.666 0c.164.669.01 7.542-.17 7.542-.105 0-.183-1.46-.21-3.958-.04-3.657.08-4.805.38-3.584m26.33.167c.164.909.02 7.375-.166 7.375-.106 0-.183-1.46-.212-3.958-.04-3.684.1-4.957.378-3.417M345 53.25c0 2.5-.06 3.917-.167 3.917s-.166-1.38-.166-3.806c0-3.351.046-4.028.277-4.028.03 0 .056 1.763.056 3.917m33.252-3.542c.164.669.01 7.542-.17 7.542-.105 0-.183-1.46-.21-3.958-.04-3.657.08-4.805.38-3.584m-133.42 3.834c.002 3.112-.033 3.625-.248 3.625-.262 0-.392-6.768-.143-7.417.273-.712.388.409.39 3.792m86.836-.115c0 2.382-.06 3.74-.167 3.74s-.167-1.393-.167-3.844c0-2.519.058-3.807.167-3.74.103.064.167 1.53.167 3.844m35.164-1.725c.003 2.186.07 2.131-2.55 2.131h-1.907l-.104.521c-.057.287-.104 1.074-.104 1.75 0 1.261-.21 1.637-.396.709-.057-.287-.104-.953-.104-1.48s.047-1.192.104-1.479l.104-.521h1.907c2.565 0 2.55.01 2.55-1.825 0-1.607.114-2.192.354-1.814.078.123.142 1.026.144 2.008m-187.203 1.77c.04 3.213.012 3.695-.208 3.695s-.253-.509-.253-3.764c0-2.937.045-3.749.208-3.695.156.052.22.989.253 3.764m-101.33-2.264l-.048 1.375-6.333.084c-3.484.045-6.427.144-6.542.218-.148.096-.208.73-.208 2.198 0 1.232-.07 2.107-.17 2.17-.115.071-.156-.733-.125-2.449l.046-2.554 6.25-.043c7.35-.05 6.666.082 6.666-1.285 0-.869.052-1.089.257-1.089.214 0 .25.227.208 1.375m21.87 2.292c0 3.148-.036 3.667-.25 3.667s-.25-.519-.25-3.667.035-3.667.25-3.667.25.519.25 3.667m65.166 0c0 3.148-.035 3.667-.25 3.667s-.25-.519-.25-3.667.036-3.667.25-3.667.25.519.25 3.667m-114.666 8l.083 1.417.917.041c.504.023 1.16.083 1.458.133l.542.091v2.409c0 1.495-.064 2.409-.167 2.409s-.167-.802-.167-2.073c0-1.291-.067-2.116-.178-2.184-.306-.189-2.06-.268-2.3-.104-.378.258-.046.528.648.528.787 0 .878.285.8 2.5-.08 2.24-.534 2.018-.598-.292-.047-1.67-.057-1.708-.44-1.708-.52 0-.595.253-.595 2.013v1.487h-30.5v-3.973c0-2.184.05-4.022.1-4.082s6.905-.093 15.21-.07l15.097.041.084 1.417m34.666 0l.084 1.417 3 .166v2.486c0 1.841-.054 2.505-.21 2.556S88 67.683 88 66.01v-2.185l-.428-.162c-.653-.249-1.834-.2-2.07.085-.243.292-.085.378.83.454l.584.048v1.875c0 2.181-.3 2.697-.376.625-.057-1.831-.13-2.083-.6-2.083-.523 0-.598.251-.598 2.013v1.487H55v-3.973c0-2.184.05-4.022.11-4.082s6.867-.093 15.125-.07l15.014.041.083 1.417m12.962 2.625l.044 4.042h-8.506v-3.986c0-3.033.05-4.007.21-4.072.114-.047 2.008-.072 4.208-.056l4 .03.045 4.042m30.5.002l.044 4.043-17.256-.087-.166-3.333-1.495-.049c-.937-.03-1.542-.123-1.622-.25-.153-.241-.173-3.37-.025-3.923.204-.76.387.028.39 1.674.003 1.9.057 1.965 1.65 1.965 1.518 0 1.667-.487.19-.629l-.837-.08.002-1.438c.004-2.329.447-2.553.536-.27l.045 1.167h1.167l.05-1.243c.074-1.842-.777-1.684 8.848-1.634l8.436.043.045 4.044m3.166.257c-.033 2.757-.096 3.689-.253 3.741-.23.077-.318-7.793-.09-8.021.29-.292.384.866.342 4.28m9.834-.256l.044 4.044-8.59-.089-.045-3.605c-.026-2.121.024-3.787.122-4.045l.167-.439 8.256.089.045 4.045m21.666 0l.045 4.044-8.423-.089-.044-3.905c-.035-3.012.003-3.936.166-4.04.117-.075 2.012-.118 4.212-.095l4 .04.044 4.045m34.834-.003l.044 4.042h-26.006l-.002-1.542c-.003-1.969.026-1.934-1.67-1.993l-1.41-.049-.048-1.833c-.05-1.916.027-2.583.3-2.583.097 0 .164.712.164 1.736 0 2.322-.035 2.264 1.34 2.264 1.12 0 1.606-.22 1.138-.516-.126-.08-.514-.147-.86-.148l-.63-.003.048-1.445c.063-1.882.427-2.144.5-.358l.05 1.22h1l.045-1.25c.025-.688.08-1.343.12-1.457.058-.162 2.842-.197 12.955-.166l12.88.039.045 4.042m39.166.001l.045 4.043-25.923-.086-.047-1.708-.048-1.708h-1.314c-1.937 0-1.84.109-1.84-2.101 0-1.577.043-1.899.25-1.899s.25.294.25 1.649c0 1.349.048 1.667.264 1.75.453.173 2.21.11 2.33-.085.173-.279-.26-.476-1.053-.478l-.708-.003v-1.573c0-.866.066-1.615.147-1.665.216-.133.348.508.35 1.696l.003 1.042h1.333v-1.178c0-2.038-1.568-1.826 13.13-1.779l12.787.04.044 4.043m17.344-3.91c.098.118.2.775.23 1.458l.05 1.243 1.368.083c1.787.109 1.734.024 1.68 2.722-.06 2.965-.363 3.128-.427.23-.053-2.414-.08-2.455-1.59-2.449-1.34.004-1.506.591-.197.694l.666.053.047 1.958c.04 1.668.01 1.959-.208 1.959-.21 0-.256-.27-.258-1.542-.003-1.721-.106-2.013-.683-1.931-.382.054-.4.12-.48 1.723l-.083 1.666h-8.667l-.045-3.713c-.03-2.371.02-3.832.13-4.042.222-.414 8.13-.52 8.47-.112m34.925.309c.057.284.103.954.103 1.489v.973l2.917.096.046 2.557c.036 2.016.001 2.542-.167 2.487-.154-.052-.225-.666-.26-2.259l-.046-2.188-.544-.102c-.883-.166-1.863-.031-1.863.255 0 .167.222.278.666.334l.667.083v1.875c0 2.346-.3 2.527-.417.251-.083-1.621-.084-1.626-.535-1.678l-.453-.052-.095 3.437h-26l-.042-1.333c-.07-2.187.034-2.063-1.75-2.119l-1.54-.048-.05-1.833c-.053-2.005.05-2.814.308-2.408.084.133.153 1.002.155 1.932.002 1.386.05 1.709.266 1.792.398.152 2.12.116 2.384-.051.334-.211-.29-.515-1.06-.515h-.6l.048-1.584c.058-1.923.348-2.106.464-.293l.084 1.294h1.166l.05-1.329c.03-.803.128-1.378.25-1.455.1-.07 5.948-.127 12.972-.126l12.772.001.103.517m34.73 3.6l.045 4.042h-25.994l-.095-3.417-1.41-.049c-.774-.027-1.506-.13-1.625-.229-.337-.28-.306-3.805.034-3.805.204 0 .25.283.25 1.55 0 1.879.055 1.95 1.523 1.95 1.647 0 1.843-.451.28-.642l-.886-.108-.05-1.248c-.028-.687-.005-1.429.05-1.649.178-.71.398-.149.45 1.147l.05 1.25h1.334l.045-1.25c.025-.688.08-1.344.12-1.459.058-.164 2.775-.199 12.954-.166l12.88.041.044 4.042m17.206-3.962c.2.133.25.77.25 4.039v3.881h-8.667l-.05-3.333c-.027-1.833-.004-3.652.052-4.042l.102-.708 4.03.003c2.246.001 4.142.072 4.282.16m1.916.379c.223 1.235.015 7.541-.25 7.541-.27 0-.466-5.85-.248-7.375.12-.842.36-.922.498-.166m33.045 3.586l.045 4.044-4.378-.044-4.378-.045-.05-3.333c-.028-1.833-.004-3.651.052-4.04l.1-.707 8.563.08.045 4.045m3.167.141c-.034 2.849-.097 3.804-.253 3.856-.23.076-.32-7.792-.093-8.019.305-.305.387.677.346 4.163m-278.38-3.561c.193 1.065.017 7.342-.208 7.417-.162.054-.208-.807-.208-3.944 0-3.73.147-4.959.416-3.473m29 0c.193 1.065.017 7.342-.208 7.417-.162.054-.208-.807-.208-3.944 0-3.73.147-4.959.416-3.473m14.417 3.473c0 3.137-.045 3.998-.208 3.944-.225-.075-.4-6.352-.208-7.417.27-1.486.416-.257.416 3.473m21.753-3.639c.194.79.007 7.511-.21 7.583-.163.054-.208-.807-.208-3.944 0-3.698.13-4.82.42-3.639m37.747 1.291V63.5h-1.82c-2.54 0-2.347-.199-2.347 2.448 0 1.723-.05 2.23-.21 2.177-.154-.051-.208-.715-.208-2.556v-2.486l4.083-.093v-1.148c0-1.198.1-1.675.35-1.675.082 0 .15.75.15 1.666m126.32-.083c.017 1.806.08 1.75-1.995 1.75-2.75 0-2.64-.102-2.695 2.452-.063 2.898-.366 2.735-.426-.23-.057-2.778-.2-2.619 2.43-2.722l2.117-.083.043-1c.09-2.119.507-2.251.527-.167M345 64.177c0 2.63-.057 3.974-.167 3.906-.103-.063-.166-1.548-.166-3.898 0-3.343.046-4.018.277-4.018.03 0 .056 1.804.056 4.01m17.17-1.844l.012 2.128c-.01.166-1.102.201-5.14.166l-5.125-.044v-2.041c0-2.613.3-2.824.416-.292l.084 1.833h9.166l.103-1.916c.155-2.883.444-2.783.483.166m16.083-1.791c.194.79.008 7.511-.2 7.583-.163.054-.21-.807-.21-3.944 0-3.698.13-4.82.42-3.639m-134.62 1.473l-.05 1.402-2.166.106-2.21.125c-.023.01-.04.913-.04 2.005s-.046 2.105-.1 2.25c-.277.72-.4.035-.4-2.233 0-2.928-.266-2.648 2.583-2.712l1.833-.041.046-1.084c.054-1.289.147-1.624.384-1.387.095.095.147.778.12 1.569m-37.8.467c0 2.336.154 2.185-2.21 2.185-2.21 0-2.29.068-2.29 1.942 0 .816-.07 1.391-.166 1.391s-.167-.716-.167-1.816c0-2.144-.137-2.017 2.19-2.017s2.31.018 2.31-2.006c0-.996.067-1.661.167-1.661s.166.772.166 1.982m39.012.072c.037 2.202.15 2.091-2.18 2.149l-1.914.047-.083 1.653c-.13 2.549-.5 2.387-.5-.217v-2.009l4.083-.094.044-1.583c.08-2.793.504-2.751.55.054m86.848.113l.057 1.916-1.994.048c-2.355.055-2.25-.038-2.253 2.008-.002 1.169-.055 1.538-.21 1.486-.15-.05-.21-.598-.21-1.972V64.25l1.75-.041c2.702-.064 2.5.097 2.5-1.996 0-2.384.285-2.025.36.454m21.807-.91c0 1.329-.185 1.269 3.75 1.207l3-.047.05-1.125c.044-.997.088-1.125.382-1.125.31 0 .33.096.284 1.375l-.048 1.375-7.75.089v-1.513c0-.966.06-1.475.166-1.41.092.057.167.585.167 1.174m-253.333 2.576c0 3.148-.036 3.667-.25 3.667s-.25-.519-.25-3.667.035-3.666.25-3.666.25.518.25 3.666m43.5 0c0 3.556-.01 3.667-.334 3.667s-.333-.111-.333-3.667.01-3.666.333-3.666.334.111.334 3.666m21.666 0c0 3.148-.035 3.667-.25 3.667s-.25-.519-.25-3.667.036-3.666.25-3.666.25.518.25 3.666M23.228 71.375c.056.206.102.844.103 1.417.002.966.03 1.042.377 1.048.54.009 22.572.01 25.483.001l2.44-.008.06-1.32c.06-1.289.18-1.696.434-1.444.224.224.26 2.918.043 3.179-.225.272-28.924.356-29.25.086-.097-.08-.145-.805-.114-1.736.05-1.539.215-2.009.425-1.223m34.76 1.333c.012 1.112.018 1.125.47 1.133 3.707.059 27.763-.022 27.88-.094.09-.055.16-.616.16-1.247 0-1.106.2-1.614.4-1.069.22.572.1 2.863-.14 2.96-.316.121-28.39.12-28.883-.001-.38-.094-.6-2.942-.255-3.288.207-.207.356.441.368 1.606m30.476.745l-.047 1.964H56.25l-.047-1.959c-.04-1.668-.01-1.958.208-1.958s.256.281.256 1.663c0 1.588.017 1.668.375 1.755.206.049 7.237.07 15.625.044l15.25-.045.044-1.75c.05-1.98.136-2.415.39-1.964.088.158.14 1.17.114 2.25m24.87-.398l.084 1.862 8.906.043c7.014.034 8.934-.002 9.04-.167.073-.115.134-1.016.135-2.001.003-1.681.17-2.273.398-1.417.148.553.122 3.674-.033 3.918-.105.165-2.14.201-9.61.167l-9.477-.043.043-1.979c.067-3.13.383-3.365.516-.383m31.503.112l.01 2.127c-.01.166-1.1.201-5.14.167l-5.125-.044-.048-1.75c-.027-.963-.004-1.93.05-2.149.2-.806.402-.064.45 1.651l.048 1.748h9.167l.103-1.917c.155-2.883.443-2.783.483.167m21.794.286l-.047 1.964-5.072.044c-2.8.024-5.12-.013-5.18-.084-.16-.194.015-4.21.186-4.21.082 0 .15.768.15 1.708.004 2.342-.47 2.138 4.843 2.086l4.57-.044.045-1.75c.05-1.98.136-2.415.39-1.964.088.158.14 1.17.113 2.25m8.703-1.13c0 .728.077 1.372.172 1.43.123.076 19.948.148 23.787.086.35-.005.375-.079.375-1.075 0-1.125.103-1.597.35-1.597.384 0 .165 3.126-.226 3.224-.723.18-24.528.092-24.75-.091s-.293-2.224-.105-2.925c.21-.777.395-.328.395.948m37.87.763l.048 1.831 13.323.042c10.548.034 13.35-.001 13.456-.166.073-.115.134-.974.135-1.908.003-1.683.226-2.401.42-1.348.055.3.077 1.296.05 2.213l-.05 1.667H212.75l-.047-1.991c-.05-2.049.022-2.601.296-2.327.086.086.177.98.203 1.987m34.667 0l.048 1.831 4.333.048c2.383.027 4.577.005 4.875-.049l.542-.098v-1.562c0-1.683.11-2.278.354-1.895.247.39.177 3.739-.083 3.954-.162.135-1.716.177-5.375.146l-5.146-.044-.048-1.991c-.048-2.049.022-2.601.297-2.327.085.086.177.98.203 1.987m8.763-.238l-.05 1.569-3.5.035c-4.66.046-4.273.192-4.214-1.582.058-1.767.36-1.94.43-.245l.05 1.208.534.017c1.826.059 5.967-.007 6.112-.096.095-.059.173-.653.173-1.319s.05-1.264.114-1.327c.28-.281.395.289.35 1.74m34.666.107l-.048 1.462-12.234.033c-7.8.022-12.346-.026-12.542-.131-.262-.14-.307-.375-.307-1.585 0-.904.06-1.383.166-1.317.092.056.167.581.167 1.165 0 .909.047 1.077.327 1.166.273.086 10.358.13 21.465.094l2.54-.009.003-1.041c.001-.573.05-1.219.107-1.436.2-.783.405.096.355 1.599m1.5.392l-.047 2.07-13.825.041c-7.604.023-13.872-.014-13.93-.083-.16-.193.02-4.208.188-4.208.082 0 .15.768.152 1.708s.062 1.803.135 1.918c.106.165 2.908.2 13.456.166l13.323-.042.04-1.584c.05-1.846.155-2.453.4-2.218.094.093.143 1.04.116 2.232m7.283-1.972c.048.206.106 1.087.13 1.958l.04 1.584h26.667l.083-1.862c.14-3.098.54-2.778.464.371l-.047 1.991-27.75.08v-2.248c0-2.078.18-2.889.413-1.874m25.885 1.58l-.048 1.462-12.286.035c-9.413.027-12.315-.012-12.4-.165-.17-.275-.064-2.833.126-3.029.093-.096.153.337.153 1.115 0 .701.07 1.316.153 1.368.128.08 12.443.139 21.305.103l2.542-.011.002-1.041c.002-.573.05-1.219.108-1.436.21-.783.404.096.355 1.599m10.368-.445v1.323l.46.012a314.11 314.11 0 0 0 5.732.004c.433-.015.442-.039.5-1.336.098-2.168.525-2.108.617.088.084 1.988.34 1.871-4.024 1.841l-3.7-.025-.05-1.487c-.05-1.567.02-2.018.297-1.847.093.057.168.699.168 1.427M371 72.488v1.302l.542.076c.298.042 1.816.033 3.375-.02l2.833-.096.046-1.083c.09-2.17.53-1.933.535.288.003 1.693.327 1.577-4.25 1.512l-3.497-.05-.05-1.333c-.054-1.455.052-2.153.304-1.998.09.055.162.686.162 1.402m8.797.965l-.047 1.964h-10.667v-2.042c0-2.554.313-2.796.38-.294.058 2.141-.5 1.943 5.286 1.882l4.5-.046.044-1.75c.05-1.98.136-2.415.39-1.964.09.158.14 1.17.114 2.25M21.732 71.43c.056.145.1.962.1 1.816 0 1.261.05 1.571.264 1.653.48.185 30.565.115 30.914-.072.285-.152.322-.361.322-1.823 0-.953.073-1.696.172-1.757.115-.071.156.596.125 2.032l-.047 2.138H21.417l-.047-2.125c-.043-1.943.083-2.589.362-1.862m69.804 1.612l.047 1.875 4.572.044c5.314.052 4.84.256 4.842-2.086.002-1.004.07-1.708.166-1.708.273 0 .353.664.302 2.5l-.048 1.75H91.083l-.048-1.75c-.05-1.825.03-2.5.296-2.5.087 0 .18.837.205 1.875M130.4 71.43c.216.563.1 2.864-.136 2.959-.438.168-15.636.101-15.957-.07-.26-.14-.306-.376-.306-1.585 0-.904.06-1.383.167-1.317.09.056.166.578.166 1.158 0 .85.057 1.078.29 1.167.367.141 14.98.15 15.207.009.093-.057.17-.662.17-1.344 0-1.164.17-1.577.4-.977m43.434 1.547c0 1.04.072 1.695.2 1.823.3.29 26.477.29 26.767 0 .13-.129.2-.793.2-1.867 0-2.27.285-1.858.362.523.047 1.47.01 1.89-.168 1.959-.125.048-6.408.085-13.96.083l-13.733-.004V73.32c0-1.406.06-2.137.167-2.07.092.057.166.824.166 1.727m65.233-1.547c.214.56.1 2.864-.134 2.958-.377.144-24.332.11-24.567-.035-.26-.16-.21-2.936.052-2.936.09 0 .188.543.215 1.208l.05 1.208 2.535.011 21.29-.099c.088-.054.16-.656.16-1.338 0-1.164.168-1.577.4-.977m95.767 1.645c0 2.121-.494 1.925 4.858 1.925 5.32 0 4.976.138 4.976-1.996 0-.953.072-1.696.17-1.757.116-.071.157.596.125 2.032l-.046 2.138h-10.5l-.048-1.907c-.05-1.977.01-2.437.296-2.261.096.059.168.85.168 1.826M92.667 72.59c0 1.331-.196 1.269 3.833 1.207l3.083-.047.05-1.125c.077-1.761.534-1.587.534.202 0 1.727.124 1.674-3.864 1.671-4.284-.003-3.97.131-3.97-1.694 0-.951.06-1.453.167-1.387.092.056.167.584.167 1.173m43.533.077l.05 1.083 6.75.09v-1.17c0-1.059.032-1.17.333-1.17.512 0 .506 2.563-.006 2.837-.378.202-7.214.166-7.42-.039-.166-.168-.308-2.384-.174-2.733.2-.519.414-.013.466 1.102m21.633-.077c0 1.331-.195 1.269 3.834 1.207l3.083-.047.05-1.125c.077-1.761.534-1.587.534.202 0 1.729.13 1.673-3.916 1.673-4.073 0-3.917.07-3.917-1.766 0-.904.06-1.383.167-1.317.09.056.166.584.166 1.173" fill="#fbfbfb"/></svg>